<?xml version="1.0" encoding="utf-8"?>
<!-- Generator: Adobe Illustrator 16.0.0, SVG Export Plug-In . SVG Version: 6.00 Build 0)  -->
<!DOCTYPE svg PUBLIC "-//W3C//DTD SVG 1.1//EN" "http://www.w3.org/Graphics/SVG/1.1/DTD/svg11.dtd">
<svg version="1.1" xmlns="http://www.w3.org/2000/svg" xmlns:xlink="http://www.w3.org/1999/xlink" x="0px" y="0px"
	 width="4016.93px" height="3957.427px" viewBox="0 0 4016.93 3957.427" enable-background="new 0 0 4016.93 3957.427"
	 xml:space="preserve">
<g id="Layer_1">
</g>
<g id="Layer_2">
	<g>
		<defs>
			<ellipse id="SVGID_1_" cx="2008.465" cy="1978.714" rx="2008.465" ry="1978.713"/>
		</defs>
		<clipPath id="SVGID_2_">
			<use xlink:href="#SVGID_1_"  overflow="visible"/>
		</clipPath>
		<rect x="-405.285" y="-193.573" clip-path="url(#SVGID_2_)" fill="#98B4B5" width="5000" height="3553"/>
		<g clip-path="url(#SVGID_2_)">
			<g>
				<g>
					<path fill="#FFFFFF" d="M2676.965,2749v304.427h-272v-485.826C2528.367,2592.919,2627.064,2690.244,2676.965,2749z"/>
					<path fill="#FF9A55" d="M2676.965,2501.427V2749c-49.9-58.756-148.598-156.081-272-181.399v-66.174H2676.965z"/>
				</g>
				<rect x="2429.715" y="2737.427" fill="#9CA2A0" width="224" height="16"/>
				<rect x="2429.715" y="2767.427" fill="#9CA2A0" width="224" height="16"/>
				<rect x="2429.715" y="2798.427" fill="#9CA2A0" width="224" height="16"/>
				<rect x="2429.715" y="2832.427" fill="#9CA2A0" width="224" height="25"/>
				<rect x="2429.715" y="2880.427" fill="#9CA2A0" width="224" height="25"/>
				<rect x="2433.132" y="2926.427" fill="#FFC153" width="216" height="95"/>
			</g>
			<g>
				<g>
					<path fill="#FFFFFF" d="M2312.965,2749v304.427h-272v-485.826C2164.367,2592.919,2263.064,2690.244,2312.965,2749z"/>
					<path fill="#FF9A55" d="M2312.965,2501.427V2749c-49.9-58.756-148.598-156.081-272-181.399v-66.174H2312.965z"/>
				</g>
				<rect x="2065.715" y="2737.427" fill="#9CA2A0" width="224" height="16"/>
				<rect x="2065.715" y="2767.427" fill="#9CA2A0" width="224" height="16"/>
				<rect x="2065.715" y="2798.427" fill="#9CA2A0" width="224" height="16"/>
				<rect x="2065.715" y="2832.427" fill="#9CA2A0" width="224" height="25"/>
				<rect x="2065.715" y="2880.427" fill="#9CA2A0" width="224" height="25"/>
				<rect x="2069.132" y="2926.427" fill="#FFC153" width="216" height="95"/>
			</g>
			<g>
				<g>
					<rect x="1282.321" y="2649.427" fill="#FFFFFF" width="109.755" height="402.432"/>
					<rect x="821.354" y="2649.427" fill="#FFFFFF" width="307.312" height="402.432"/>
					<rect x="1128.666" y="2649.427" fill="#FF867B" width="153.655" height="402.432"/>
				</g>
				<rect x="858.465" y="2716.427" fill="#9CA2A0" width="240" height="40"/>
				<rect x="838.465" y="2829.427" fill="#9CA2A0" width="280" height="27"/>
				<rect x="838.465" y="2885.427" fill="#9CA2A0" width="280" height="27"/>
				<rect x="838.465" y="2946.427" fill="#9CA2A0" width="280" height="27"/>
			</g>
			<g>
				<g>
					<path fill="#FFFBFF" d="M1888.915,2935.817v116.041h-440v-330h33.644C1739.004,2748.821,1845.12,2855.95,1888.915,2935.817z"/>
					<path fill="#FF867B" d="M1888.715,2935.817c-44-79.867-149.711-187.391-406.156-214.391h406.156V2935.817z"/>
				</g>
				<rect x="1528.715" y="2880.427" fill="#9CA2A0" width="281" height="24"/>
				<rect x="1528.715" y="2917.427" fill="#9CA2A0" width="281" height="24"/>
				<rect x="1465.715" y="2978.427" fill="#C6C5C4" width="406" height="14"/>
				<rect x="1465.715" y="3005.427" fill="#C6C5C4" width="406" height="14"/>
			</g>
			<rect x="-405.285" y="3063.427" fill="#D4E3E6" width="5000" height="108"/>
			<g>
				<g>
					<rect x="4391.321" y="2647.427" fill="#FFFFFF" width="109.754" height="402.432"/>
					<rect x="3930.354" y="2647.427" fill="#FFFFFF" width="307.311" height="402.432"/>
					<rect x="4237.665" y="2647.427" fill="#FF867B" width="153.656" height="402.432"/>
				</g>
				<rect x="3967.465" y="2714.427" fill="#9CA2A0" width="240" height="40"/>
				<rect x="3947.465" y="2827.427" fill="#9CA2A0" width="280" height="27"/>
				<rect x="3947.465" y="2883.427" fill="#9CA2A0" width="280" height="27"/>
				<rect x="3947.465" y="2944.427" fill="#9CA2A0" width="280" height="27"/>
			</g>
			<g>
				<g>
					<rect x="3796.715" y="2879.427" fill="#FFFFFF" width="78" height="174"/>
					<rect x="3277.715" y="2879.427" fill="#FFFFFF" width="379" height="174"/>
					<rect x="3656.715" y="2879.427" fill="#FF867B" width="140" height="174"/>
				</g>
				<rect x="3360.465" y="2920.427" fill="#9CA2A0" width="240" height="40"/>
				<rect x="3340.465" y="2989.427" fill="#9CA2A0" width="280" height="27"/>
			</g>
			<g>
				<g>
					<path fill="#FFFBFF" d="M3219.915,2937.386v116.041h-440v-330h33.644C3070.004,2750.39,3176.12,2857.519,3219.915,2937.386z"/>
					<path fill="#CB86DB" d="M3219.915,2937.386c-43.795-79.867-149.911-186.996-406.356-213.959h406.356V2937.386z"/>
				</g>
				<rect x="2859.715" y="2882.427" fill="#CB86DB" width="281" height="24"/>
				<rect x="2859.715" y="2919.427" fill="#CB86DB" width="281" height="24"/>
				<rect x="2796.715" y="2980.427" fill="#C6C5C4" width="406" height="14"/>
				<rect x="2796.715" y="3007.427" fill="#C6C5C4" width="406" height="14"/>
			</g>
			<g>
				<path fill="#D6D5D3" d="M-188.19,2685.503v-23.529h3.22h7.962h6.188h7.97h6.184h7.968h6.186h7.968h6.186h1.911v24.402
					c-3.25-0.578-6.563-0.873-9.924-0.873H-188.19z"/>
				<path fill="#E9E6E3" d="M-241.584,2661.974h7.968h6.184h7.973h6.182h7.965h6.187h7.966h2.971v23.529h-51.813
					c-3.364,0-6.676,0.295-9.926,0.873v-24.402h2.159H-241.584z"/>
				<path fill="#FFFAF6" d="M-317.945,2793.766c0-55.11,29.658-100.62,68.016-107.39c3.25-0.578,6.562-0.873,9.926-0.873h51.813
					v22.755v101.114h-65.427c-24.524,0-44.389,27.605-44.389,61.646v41.776c0,34.049,19.864,61.648,44.389,61.648h65.427v86.695
					h-119.92c-3.59,0-6.674-2.775-8.311-6.836h-0.365c-0.05-0.407-0.071-0.818-0.118-1.223c-0.488-1.604-0.77-3.377-0.77-5.229
					c0-0.554,0.074-1.078,0.124-1.621c-0.238-3.255-0.396-6.532-0.396-9.874V2793.766z"/>
				<path fill="#E8E4E2" d="M-136.374,2685.503c3.361,0,6.674,0.295,9.924,0.873c38.363,6.77,68.018,52.279,68.018,107.39v242.589
					c0,3.334-0.153,6.602-0.389,9.842c0.051,0.545,0.123,1.09,0.123,1.653c0,1.872-0.282,3.637-0.78,5.246
					c-0.046,0.395-0.069,0.81-0.113,1.206h-0.355c-1.64,4.061-4.726,6.836-8.315,6.836H-188.19v-86.695h65.43
					c24.524,0,44.392-27.6,44.392-61.648v-41.776c0-34.04-19.867-61.646-44.392-61.646h-65.43v-101.114v-22.755H-136.374z"/>
				<path fill="#80BC86" d="M-78.369,2871.018v41.776c0,34.049-19.867,61.648-44.392,61.648h-65.43v-22.377h61.189v-24.934h-61.189
					v-20.729h78.131v-24.936h-78.131v-20.731h78.131v-24.93h-78.131v-26.435h65.43
					C-98.236,2809.372-78.369,2836.978-78.369,2871.018z"/>
				<path fill="#8AC48D" d="M-266.313,2835.807v24.93h78.122v20.731h-78.122v24.936h78.122v20.729h-61.188v24.934h61.188v22.377
					h-65.427c-24.524,0-44.389-27.6-44.389-61.648v-41.776c0-34.04,19.864-61.646,44.389-61.646h65.427v26.435H-266.313z"/>
				<rect x="-188.19" y="2835.807" fill="#E8E4E2" width="78.131" height="24.93"/>
				<rect x="-266.313" y="2835.807" fill="#FFFAF6" width="78.122" height="24.93"/>
				<rect x="-188.19" y="2881.468" fill="#E8E4E2" width="78.131" height="24.936"/>
				<rect x="-266.313" y="2881.468" fill="#FFFAF6" width="78.122" height="24.936"/>
				<rect x="-249.378" y="2927.132" fill="#FFFAF6" width="61.188" height="24.934"/>
				<rect x="-188.19" y="2927.132" fill="#E8E4E2" width="61.189" height="24.934"/>
				<rect x="-219.46" y="2600.505" fill="#80BC86" width="6.182" height="61.459"/>
				<rect x="-219.46" y="2661.964" fill="#4EBBC0" width="6.182" height="0.01"/>
				<rect x="-205.313" y="2600.505" fill="#80BC86" width="6.187" height="61.459"/>
				<rect x="-205.313" y="2661.964" fill="#4EBBC0" width="6.187" height="0.01"/>
				<rect x="-120.392" y="2600.505" fill="#80BC86" width="6.187" height="61.469"/>
				<rect x="-134.547" y="2600.505" fill="#80BC86" width="6.186" height="61.459"/>
				<rect x="-134.547" y="2661.964" fill="#4EBBC0" width="6.186" height="0.01"/>
				<polygon fill="#80BC86" points="-188.19,2600.505 -184.971,2600.505 -184.971,2661.964 -188.19,2661.964 -191.161,2661.964 
					-191.161,2600.505 				"/>
				<rect x="-191.161" y="2661.964" fill="#4EBBC0" width="2.971" height="0.01"/>
				<rect x="-188.19" y="2661.964" fill="#4EBBC0" width="3.22" height="0.01"/>
				<rect x="-177.009" y="2600.505" fill="#80BC86" width="6.188" height="61.459"/>
				<rect x="-177.009" y="2661.964" fill="#4EBBC0" width="6.188" height="0.01"/>
				<rect x="-233.616" y="2600.505" fill="#80BC86" width="6.184" height="61.459"/>
				<rect x="-233.616" y="2661.964" fill="#4EBBC0" width="6.184" height="0.01"/>
				<rect x="-148.7" y="2600.505" fill="#80BC86" width="6.186" height="61.459"/>
				<rect x="-148.7" y="2661.964" fill="#4EBBC0" width="6.186" height="0.01"/>
				<rect x="-247.771" y="2600.505" fill="#80BC86" width="6.187" height="61.459"/>
				<rect x="-247.771" y="2661.964" fill="#4EBBC0" width="6.187" height="0.01"/>
				<rect x="-261.926" y="2600.505" fill="#80BC86" width="6.186" height="61.469"/>
				<rect x="-162.852" y="2600.505" fill="#80BC86" width="6.184" height="61.459"/>
				<rect x="-162.852" y="2661.964" fill="#4EBBC0" width="6.184" height="0.01"/>
				<rect x="-275.329" y="2600.505" fill="#80BC86" width="5.44" height="61.469"/>
				<rect x="-106.239" y="2600.505" fill="#80BC86" width="5.188" height="61.469"/>
				<rect x="-114.205" y="2600.505" fill="#8AC48D" width="7.966" height="61.469"/>
				<polygon fill="#8AC48D" points="-128.361,2661.964 -128.361,2600.505 -120.392,2600.505 -120.392,2661.974 -126.45,2661.974 
					-126.45,2661.964 				"/>
				<rect x="-128.361" y="2661.964" fill="#75CCD5" width="1.911" height="0.01"/>
				<rect x="-142.515" y="2600.505" fill="#8AC48D" width="7.968" height="61.459"/>
				<rect x="-142.515" y="2661.964" fill="#75CCD5" width="7.968" height="0.01"/>
				<rect x="-156.668" y="2600.505" fill="#8AC48D" width="7.968" height="61.459"/>
				<rect x="-156.668" y="2661.964" fill="#75CCD5" width="7.968" height="0.01"/>
				<rect x="-170.821" y="2600.505" fill="#8AC48D" width="7.97" height="61.459"/>
				<rect x="-170.821" y="2661.964" fill="#75CCD5" width="7.97" height="0.01"/>
				<rect x="-184.971" y="2600.505" fill="#8AC48D" width="7.962" height="61.459"/>
				<rect x="-184.971" y="2661.964" fill="#75CCD5" width="7.962" height="0.01"/>
				<rect x="-199.127" y="2600.505" fill="#8AC48D" width="7.966" height="61.459"/>
				<rect x="-199.127" y="2661.964" fill="#75CCD5" width="7.966" height="0.01"/>
				<rect x="-213.278" y="2600.505" fill="#8AC48D" width="7.965" height="61.459"/>
				<rect x="-213.278" y="2661.964" fill="#75CCD5" width="7.965" height="0.01"/>
				<rect x="-227.433" y="2600.505" fill="#8AC48D" width="7.973" height="61.459"/>
				<rect x="-227.433" y="2661.964" fill="#75CCD5" width="7.973" height="0.01"/>
				<rect x="-241.584" y="2600.505" fill="#8AC48D" width="7.968" height="61.459"/>
				<rect x="-241.584" y="2661.964" fill="#75CCD5" width="7.968" height="0.01"/>
				<polygon fill="#8AC48D" points="-249.93,2661.964 -249.93,2661.974 -255.74,2661.974 -255.74,2600.505 -247.771,2600.505 
					-247.771,2661.964 				"/>
				<rect x="-249.93" y="2661.964" fill="#75CCD5" width="2.159" height="0.01"/>
				<rect x="-269.889" y="2600.505" fill="#8AC48D" width="7.963" height="61.469"/>
			</g>
			<g>
				<g>
					<rect x="24.715" y="2654.427" fill="#FFFAF6" width="127" height="12"/>
					<rect x="24.715" y="2679.427" fill="#FFFAF6" width="127" height="382"/>
					<rect x="24.715" y="2640.427" fill="#D3615B" width="127" height="14"/>
					<rect x="24.715" y="2666.427" fill="#D3615B" width="127" height="13"/>
				</g>
				<g>
					<rect x="24.715" y="2591.427" fill="#A5A4A4" width="127" height="43"/>
					<rect x="24.715" y="2634.427" fill="#FFFAF6" width="127" height="6"/>
				</g>
				<rect x="4.715" y="2586.427" fill="#FFFAF6" width="166" height="42"/>
				<rect x="24.715" y="3004.427" fill="#D3615B" width="127" height="14"/>
				<rect x="24.715" y="3029.427" fill="#D3615B" width="127" height="14"/>
				<rect x="112.715" y="2726.427" fill="#D3615B" width="10" height="215"/>
				<rect x="67.715" y="2726.427" fill="#D3615B" width="10" height="215"/>
				<rect x="50.715" y="2726.427" fill="#D3615B" width="10" height="215"/>
			</g>
			<g>
				<g>
					<rect x="270.715" y="2654.427" fill="#FFFAF6" width="127" height="12"/>
					<rect x="270.715" y="2679.427" fill="#FFFAF6" width="127" height="382"/>
					<rect x="270.715" y="2640.427" fill="#D1C85D" width="127" height="14"/>
					<rect x="270.715" y="2666.427" fill="#D1C85D" width="127" height="13"/>
				</g>
				<g>
					<rect x="270.715" y="2591.427" fill="#A5A4A4" width="127" height="43"/>
					<rect x="270.715" y="2634.427" fill="#FFFAF6" width="127" height="6"/>
				</g>
				<rect x="250.715" y="2586.427" fill="#FFFAF6" width="166" height="42"/>
				<rect x="270.715" y="3004.427" fill="#D1C85D" width="127" height="14"/>
				<rect x="270.715" y="3029.427" fill="#D1C85D" width="127" height="14"/>
				<rect x="358.715" y="2726.427" fill="#D1C85D" width="10" height="215"/>
				<rect x="313.715" y="2726.427" fill="#D1C85D" width="10" height="215"/>
				<rect x="296.715" y="2726.427" fill="#D1C85D" width="10" height="215"/>
			</g>
			<g>
				<g>
					<path fill="#FFFFFF" d="M746.965,2744v304.427h-272v-485.826C598.367,2587.919,697.064,2685.244,746.965,2744z"/>
					<path fill="#FF9A55" d="M746.965,2496.427V2744c-49.9-58.756-148.598-156.081-272-181.399v-66.174H746.965z"/>
				</g>
				<rect x="499.715" y="2732.427" fill="#9CA2A0" width="224" height="16"/>
				<rect x="499.715" y="2762.427" fill="#9CA2A0" width="224" height="16"/>
				<rect x="499.715" y="2793.427" fill="#9CA2A0" width="224" height="16"/>
				<rect x="499.715" y="2827.427" fill="#9CA2A0" width="224" height="25"/>
				<rect x="499.715" y="2875.427" fill="#9CA2A0" width="224" height="25"/>
				<rect x="503.132" y="2921.427" fill="#FFC153" width="216" height="95"/>
			</g>
		</g>
		<g clip-path="url(#SVGID_2_)">
			<path fill="none" d="M2772,2369.187l0.273-1l-0.283-0.17C2771.99,2368.405,2772,2368.802,2772,2369.187z"/>
			<path fill="none" d="M2067.274,3267.768v-0.006c-0.058,0-0.104,0-0.154,0C2067.171,3267.762,2067.217,3267.765,2067.274,3267.768
				z"/>
			<path fill="#0B4868" d="M2772,2370.179c0-0.33,0-0.662,0-0.992l-0.158,0.575L2772,2370.179z"/>
			<path fill="#4BC3D0" d="M2067.274,3267.768v-0.006c-0.058,0-0.104,0-0.154,0
				C2067.171,3267.762,2067.217,3267.765,2067.274,3267.768z"/>
		</g>
		<path clip-path="url(#SVGID_2_)" fill="none" d="M2071.098,3192.591l49.367-97.65c-36.66-38.606-113.995,41.07-113.995,41.07
			v19.129l42.016-7.264L2071.098,3192.591z"/>
		<g clip-path="url(#SVGID_2_)">
			<g>
				<g>
					<path fill="#FFFFFF" d="M984.215,1177v304.427h272V995.601C1132.813,1020.919,1034.115,1118.244,984.215,1177z"/>
					<path fill="#5787FF" d="M984.215,929.427V1177c49.9-58.756,148.598-156.081,272-181.399v-66.174H984.215z"/>
				</g>
				<rect x="1027.715" y="977.427" fill="#686868" width="184" height="104"/>
				<rect x="1007.715" y="1134.427" fill="#686868" width="224" height="16"/>
				<rect x="1007.715" y="1165.427" fill="#686868" width="224" height="16"/>
				<rect x="1007.715" y="1195.427" fill="#686868" width="224" height="16"/>
				<rect x="1007.715" y="1226.427" fill="#686868" width="224" height="16"/>
				<rect x="1007.715" y="1260.427" fill="#686868" width="224" height="25"/>
				<rect x="1007.715" y="1308.427" fill="#686868" width="224" height="25"/>
				<rect x="1011.715" y="1354.427" fill="#686868" width="216" height="95"/>
			</g>
			<g>
				<g>
					<path fill="#FFFFFF" d="M1320.465,1177v304.427h272V995.601C1469.063,1020.919,1370.365,1118.244,1320.465,1177z"/>
					<path fill="#FF9A55" d="M1320.465,929.427V1177c49.9-58.756,148.598-156.081,272-181.399v-66.174H1320.465z"/>
				</g>
				<rect x="1343.715" y="1165.427" fill="#9CA2A0" width="224" height="16"/>
				<rect x="1343.715" y="1195.427" fill="#9CA2A0" width="224" height="16"/>
				<rect x="1343.715" y="1226.427" fill="#9CA2A0" width="224" height="16"/>
				<rect x="1343.715" y="1260.427" fill="#9CA2A0" width="224" height="25"/>
				<rect x="1343.715" y="1308.427" fill="#9CA2A0" width="224" height="25"/>
				<rect x="1348.298" y="1354.427" fill="#FFC153" width="216" height="95"/>
			</g>
			<g>
				<g>
					<path fill="#FFFFFF" d="M2324.465,1179v304.427h272V997.601C2473.063,1022.919,2374.365,1120.244,2324.465,1179z"/>
					<path fill="#FF9A55" d="M2324.465,931.427V1179c49.9-58.756,148.598-156.081,272-181.399v-66.174H2324.465z"/>
				</g>
				<rect x="2347.715" y="1167.427" fill="#9CA2A0" width="224" height="16"/>
				<rect x="2347.715" y="1197.427" fill="#9CA2A0" width="224" height="16"/>
				<rect x="2347.715" y="1228.427" fill="#9CA2A0" width="224" height="16"/>
				<rect x="2347.715" y="1262.427" fill="#9CA2A0" width="224" height="25"/>
				<rect x="2347.715" y="1310.427" fill="#9CA2A0" width="224" height="25"/>
				<rect x="2352.298" y="1356.427" fill="#FFC153" width="216" height="95"/>
			</g>
			<g>
				<g>
					<path fill="#FFFFFF" d="M2659.465,1179v304.427h272V997.601C2808.063,1022.919,2709.365,1120.244,2659.465,1179z"/>
					<path fill="#FF9A55" d="M2659.465,931.427V1179c49.9-58.756,148.598-156.081,272-181.399v-66.174H2659.465z"/>
				</g>
				<rect x="2682.715" y="1167.427" fill="#9CA2A0" width="224" height="16"/>
				<rect x="2682.715" y="1197.427" fill="#9CA2A0" width="224" height="16"/>
				<rect x="2682.715" y="1228.427" fill="#9CA2A0" width="224" height="16"/>
				<rect x="2682.715" y="1262.427" fill="#9CA2A0" width="224" height="25"/>
				<rect x="2682.715" y="1310.427" fill="#9CA2A0" width="224" height="25"/>
				<rect x="2687.298" y="1356.427" fill="#FFC153" width="216" height="95"/>
			</g>
			<g>
				<g>
					<path fill="#FFFFFF" d="M652.965,1177v304.427h272V995.601C801.563,1020.919,702.865,1118.244,652.965,1177z"/>
					<path fill="#5787FF" d="M652.965,929.427V1177c49.9-58.756,148.598-156.081,272-181.399v-66.174H652.965z"/>
				</g>
				<rect x="696.715" y="977.427" fill="#686868" width="184" height="104"/>
				<rect x="676.715" y="1134.427" fill="#686868" width="224" height="16"/>
				<rect x="676.715" y="1165.427" fill="#686868" width="224" height="16"/>
				<rect x="676.715" y="1195.427" fill="#686868" width="224" height="16"/>
				<rect x="676.715" y="1226.427" fill="#686868" width="224" height="16"/>
				<rect x="676.715" y="1260.427" fill="#686868" width="224" height="25"/>
				<rect x="676.715" y="1308.427" fill="#686868" width="224" height="25"/>
				<rect x="680.715" y="1354.427" fill="#686868" width="216" height="95"/>
			</g>
			<g>
				<g>
					<path fill="#FFC153" d="M321.715,1177v304.427h272V995.601C470.313,1020.919,371.615,1118.244,321.715,1177z"/>
					<path fill="#FF9A55" d="M321.715,929.427V1177c49.9-58.756,148.598-156.081,272-181.399v-66.174H321.715z"/>
				</g>
				<rect x="365.715" y="977.427" fill="#FFFFFF" width="184" height="104"/>
				<rect x="344.715" y="1134.427" fill="#686868" width="224" height="16"/>
				<rect x="344.715" y="1165.427" fill="#686868" width="224" height="16"/>
				<rect x="344.715" y="1195.427" fill="#686868" width="224" height="16"/>
				<rect x="344.715" y="1226.427" fill="#686868" width="224" height="16"/>
				<rect x="344.715" y="1260.427" fill="#686868" width="224" height="25"/>
				<rect x="344.715" y="1308.427" fill="#686868" width="224" height="25"/>
				<rect x="349.548" y="1354.427" fill="#FFFFFF" width="216" height="95"/>
			</g>
			<g>
				<g>
					<path fill="#FFC153" d="M-9.535,1177v304.427h272V995.601C139.063,1020.919,40.365,1118.244-9.535,1177z"/>
					<path fill="#FF9A55" d="M-9.535,929.427V1177c49.9-58.756,148.598-156.081,272-181.399v-66.174H-9.535z"/>
				</g>
				<rect x="34.465" y="977.427" fill="#FFFFFF" width="184" height="104"/>
				<rect x="13.715" y="1134.427" fill="#686868" width="224" height="16"/>
				<rect x="13.715" y="1165.427" fill="#686868" width="224" height="16"/>
				<rect x="13.715" y="1195.427" fill="#686868" width="224" height="16"/>
				<rect x="13.715" y="1226.427" fill="#686868" width="224" height="16"/>
				<rect x="13.715" y="1260.427" fill="#686868" width="224" height="25"/>
				<rect x="13.715" y="1308.427" fill="#686868" width="224" height="25"/>
				<rect x="18.298" y="1354.427" fill="#FFFFFF" width="216" height="95"/>
			</g>
			<g>
				<g>
					<path fill="#FFC153" d="M-340.785,1177v304.427h272V995.601C-192.187,1020.919-290.885,1118.244-340.785,1177z"/>
					<path fill="#FF9A55" d="M-340.785,929.427V1177c49.9-58.756,148.598-156.081,272-181.399v-66.174H-340.785z"/>
				</g>
				<rect x="-296.785" y="977.427" fill="#FFFFFF" width="184" height="104"/>
				<rect x="-317.285" y="1134.427" fill="#686868" width="224" height="16"/>
				<rect x="-317.285" y="1165.427" fill="#686868" width="224" height="16"/>
				<rect x="-317.285" y="1195.427" fill="#686868" width="224" height="16"/>
				<rect x="-317.285" y="1226.427" fill="#686868" width="224" height="16"/>
				<rect x="-317.285" y="1260.427" fill="#686868" width="224" height="25"/>
				<rect x="-317.285" y="1308.427" fill="#686868" width="224" height="25"/>
				<rect x="-312.952" y="1354.427" fill="#FFFFFF" width="216" height="95"/>
			</g>
			<rect x="-405.285" y="1486.427" fill="#D4E3E6" width="5000" height="108"/>
			<path fill="#563722" d="M1415.715,1155.427"/>
			<g>
				<path fill="#D6D5D3" d="M3874.102,1101.123v-23.529h-3.889h-9.619h-7.475h-9.627h-7.471h-9.625h-7.473h-9.625h-7.473h-2.309
					v24.401c3.926-0.578,7.928-0.873,11.988-0.873H3874.102z"/>
				<path fill="#E9E6E3" d="M3938.604,1077.594h-9.625h-7.471h-9.631h-7.467h-9.623h-7.473h-9.623h-3.59v23.529h62.594
					c4.064,0,8.064,0.295,11.99,0.873v-24.401h-2.607H3938.604z"/>
				<path fill="#FFFAF6" d="M4030.852,1209.386c0-55.111-35.828-100.62-82.166-107.39c-3.926-0.578-7.926-0.873-11.99-0.873h-62.594
					v22.755v101.114h79.039c29.627,0,53.623,27.605,53.623,61.646v41.776c0,34.049-23.996,61.648-53.623,61.648h-79.039v86.695
					h144.869c4.336,0,8.063-2.775,10.039-6.836h0.441c0.061-0.407,0.086-0.818,0.143-1.222c0.59-1.603,0.93-3.377,0.93-5.229
					c0-0.554-0.09-1.078-0.15-1.621c0.289-3.254,0.479-6.532,0.479-9.874V1209.386z"/>
				<path fill="#E8E4E2" d="M3811.506,1101.123c-4.061,0-8.063,0.295-11.988,0.873c-46.344,6.771-82.168,52.279-82.168,107.39
					v242.589c0,3.333,0.186,6.601,0.469,9.841c-0.061,0.545-0.148,1.09-0.148,1.654c0,1.873,0.342,3.637,0.943,5.246
					c0.055,0.395,0.084,0.809,0.137,1.206h0.43c1.98,4.061,5.709,6.836,10.045,6.836h144.877v-86.695h-79.041
					c-29.627,0-53.627-27.599-53.627-61.648v-41.776c0-34.041,24-61.646,53.627-61.646h79.041v-101.114v-22.755H3811.506z"/>
				<path fill="#2E3E57" d="M3741.434,1286.638v41.776c0,34.049,24,61.648,53.627,61.648h79.041v-22.377h-73.918v-24.933h73.918
					v-20.729h-94.385v-24.936h94.385v-20.731h-94.385v-24.93h94.385v-26.435h-79.041
					C3765.434,1224.992,3741.434,1252.597,3741.434,1286.638z"/>
				<path fill="#32515E" d="M3968.477,1251.427v24.93h-94.375v20.731h94.375v24.936h-94.375v20.729h73.918v24.933h-73.918v22.377
					h79.039c29.627,0,53.623-27.599,53.623-61.648v-41.776c0-34.041-23.996-61.646-53.623-61.646h-79.039v26.435H3968.477z"/>
				<rect x="3779.717" y="1251.427" fill="#46A5A4" width="94.385" height="24.93"/>
				<rect x="3874.102" y="1251.427" fill="#4EBBC0" width="94.375" height="24.93"/>
				<rect x="3779.717" y="1297.088" fill="#46A5A4" width="94.385" height="24.936"/>
				<rect x="3874.102" y="1297.088" fill="#4EBBC0" width="94.375" height="24.936"/>
				<rect x="3874.102" y="1342.752" fill="#4EBBC0" width="73.918" height="24.933"/>
				<rect x="3800.184" y="1342.752" fill="#46A5A4" width="73.918" height="24.933"/>
				<rect x="3904.41" y="1016.125" fill="#2E3E57" width="7.467" height="61.459"/>
				<rect x="3904.41" y="1077.584" fill="#4EBBC0" width="7.467" height="0.01"/>
				<rect x="3887.314" y="1016.125" fill="#2E3E57" width="7.473" height="61.459"/>
				<rect x="3887.314" y="1077.584" fill="#4EBBC0" width="7.473" height="0.01"/>
				<rect x="3784.725" y="1016.125" fill="#2E3E57" width="7.475" height="61.469"/>
				<rect x="3801.826" y="1016.125" fill="#2E3E57" width="7.473" height="61.459"/>
				<rect x="3801.826" y="1077.584" fill="#4EBBC0" width="7.473" height="0.01"/>
				<polygon fill="#2E3E57" points="3874.102,1016.125 3870.213,1016.125 3870.213,1077.584 3874.102,1077.584 3877.691,1077.584 
					3877.691,1016.125 				"/>
				<rect x="3874.102" y="1077.584" fill="#4EBBC0" width="3.59" height="0.01"/>
				<rect x="3870.213" y="1077.584" fill="#4EBBC0" width="3.889" height="0.01"/>
				<rect x="3853.119" y="1016.125" fill="#2E3E57" width="7.475" height="61.459"/>
				<rect x="3853.119" y="1077.584" fill="#4EBBC0" width="7.475" height="0.01"/>
				<rect x="3921.508" y="1016.125" fill="#2E3E57" width="7.471" height="61.459"/>
				<rect x="3921.508" y="1077.584" fill="#4EBBC0" width="7.471" height="0.01"/>
				<rect x="3818.924" y="1016.125" fill="#2E3E57" width="7.473" height="61.459"/>
				<rect x="3818.924" y="1077.584" fill="#4EBBC0" width="7.473" height="0.01"/>
				<rect x="3938.604" y="1016.125" fill="#2E3E57" width="7.475" height="61.459"/>
				<rect x="3938.604" y="1077.584" fill="#4EBBC0" width="7.475" height="0.01"/>
				<rect x="3955.705" y="1016.125" fill="#2E3E57" width="7.473" height="61.469"/>
				<rect x="3836.021" y="1016.125" fill="#2E3E57" width="7.471" height="61.459"/>
				<rect x="3836.021" y="1077.584" fill="#4EBBC0" width="7.471" height="0.01"/>
				<rect x="3972.797" y="1016.125" fill="#2E3E57" width="6.572" height="61.469"/>
				<rect x="3768.834" y="1016.125" fill="#2E3E57" width="6.268" height="61.469"/>
				<rect x="3775.102" y="1016.125" fill="#32515E" width="9.623" height="61.469"/>
				<polygon fill="#32515E" points="3801.826,1077.584 3801.826,1016.125 3792.199,1016.125 3792.199,1077.594 3799.518,1077.594 
					3799.518,1077.584 				"/>
				<rect x="3799.518" y="1077.584" fill="#75CCD5" width="2.309" height="0.01"/>
				<rect x="3809.299" y="1016.125" fill="#32515E" width="9.625" height="61.459"/>
				<rect x="3809.299" y="1077.584" fill="#75CCD5" width="9.625" height="0.01"/>
				<rect x="3826.396" y="1016.125" fill="#32515E" width="9.625" height="61.459"/>
				<rect x="3826.396" y="1077.584" fill="#75CCD5" width="9.625" height="0.01"/>
				<rect x="3843.492" y="1016.125" fill="#32515E" width="9.627" height="61.459"/>
				<rect x="3843.492" y="1077.584" fill="#75CCD5" width="9.627" height="0.01"/>
				<rect x="3860.594" y="1016.125" fill="#32515E" width="9.619" height="61.459"/>
				<rect x="3860.594" y="1077.584" fill="#75CCD5" width="9.619" height="0.01"/>
				<rect x="3877.691" y="1016.125" fill="#32515E" width="9.623" height="61.459"/>
				<rect x="3877.691" y="1077.584" fill="#75CCD5" width="9.623" height="0.01"/>
				<rect x="3894.787" y="1016.125" fill="#32515E" width="9.623" height="61.459"/>
				<rect x="3894.787" y="1077.584" fill="#75CCD5" width="9.623" height="0.01"/>
				<rect x="3911.877" y="1016.125" fill="#32515E" width="9.631" height="61.459"/>
				<rect x="3911.877" y="1077.584" fill="#75CCD5" width="9.631" height="0.01"/>
				<rect x="3928.979" y="1016.125" fill="#32515E" width="9.625" height="61.459"/>
				<rect x="3928.979" y="1077.584" fill="#75CCD5" width="9.625" height="0.01"/>
				<polygon fill="#32515E" points="3948.686,1077.584 3948.686,1077.594 3955.705,1077.594 3955.705,1016.125 3946.078,1016.125 
					3946.078,1077.584 				"/>
				<rect x="3946.078" y="1077.584" fill="#75CCD5" width="2.607" height="0.01"/>
				<rect x="3963.178" y="1016.125" fill="#32515E" width="9.619" height="61.469"/>
			</g>
			<g>
				<path fill="#D6D5D3" d="M4238.21,1101.123v-23.529h-3.889h-9.619h-7.474h-9.628h-7.471h-9.625h-7.472h-9.626h-7.473h-2.309
					v24.401c3.926-0.578,7.928-0.873,11.988-0.873H4238.21z"/>
				<path fill="#E9E6E3" d="M4302.712,1077.594h-9.625h-7.471h-9.631h-7.467h-9.622h-7.474h-9.622h-3.591v23.529h62.594
					c4.064,0,8.064,0.295,11.99,0.873v-24.401h-2.607H4302.712z"/>
				<path fill="#FFFAF6" d="M4394.96,1209.386c0-55.111-35.827-100.62-82.166-107.39c-3.926-0.578-7.926-0.873-11.99-0.873h-62.594
					v22.755v101.114h79.04c29.626,0,53.622,27.605,53.622,61.646v41.776c0,34.049-23.996,61.648-53.622,61.648h-79.04v86.695
					h144.869c4.336,0,8.063-2.775,10.039-6.836h0.441c0.061-0.407,0.086-0.818,0.143-1.222c0.591-1.603,0.931-3.377,0.931-5.229
					c0-0.554-0.091-1.078-0.15-1.621c0.288-3.254,0.478-6.532,0.478-9.874V1209.386z"/>
				<path fill="#E8E4E2" d="M4175.614,1101.123c-4.061,0-8.063,0.295-11.988,0.873c-46.344,6.771-82.168,52.279-82.168,107.39
					v242.589c0,3.333,0.186,6.601,0.469,9.841c-0.061,0.545-0.147,1.09-0.147,1.654c0,1.873,0.341,3.637,0.943,5.246
					c0.054,0.395,0.083,0.809,0.137,1.206h0.429c1.981,4.061,5.71,6.836,10.046,6.836h144.876v-86.695h-79.041
					c-29.627,0-53.627-27.599-53.627-61.648v-41.776c0-34.041,24-61.646,53.627-61.646h79.041v-101.114v-22.755H4175.614z"/>
				<path fill="#2E3E57" d="M4105.542,1286.638v41.776c0,34.049,24,61.648,53.627,61.648h79.041v-22.377h-73.918v-24.933h73.918
					v-20.729h-94.385v-24.936h94.385v-20.731h-94.385v-24.93h94.385v-26.435h-79.041
					C4129.542,1224.992,4105.542,1252.597,4105.542,1286.638z"/>
				<path fill="#32515E" d="M4332.585,1251.427v24.93h-94.375v20.731h94.375v24.936h-94.375v20.729h73.918v24.933h-73.918v22.377
					h79.04c29.626,0,53.622-27.599,53.622-61.648v-41.776c0-34.041-23.996-61.646-53.622-61.646h-79.04v26.435H4332.585z"/>
				<rect x="4143.825" y="1251.427" fill="#46A5A4" width="94.385" height="24.93"/>
				<rect x="4238.21" y="1251.427" fill="#4EBBC0" width="94.375" height="24.93"/>
				<rect x="4143.825" y="1297.088" fill="#46A5A4" width="94.385" height="24.936"/>
				<rect x="4238.21" y="1297.088" fill="#4EBBC0" width="94.375" height="24.936"/>
				<rect x="4238.21" y="1342.752" fill="#4EBBC0" width="73.918" height="24.933"/>
				<rect x="4164.292" y="1342.752" fill="#46A5A4" width="73.918" height="24.933"/>
				<rect x="4268.519" y="1016.125" fill="#2E3E57" width="7.467" height="61.459"/>
				<rect x="4268.519" y="1077.584" fill="#4EBBC0" width="7.467" height="0.01"/>
				<rect x="4251.423" y="1016.125" fill="#2E3E57" width="7.474" height="61.459"/>
				<rect x="4251.423" y="1077.584" fill="#4EBBC0" width="7.474" height="0.01"/>
				<rect x="4148.833" y="1016.125" fill="#2E3E57" width="7.475" height="61.469"/>
				<rect x="4165.935" y="1016.125" fill="#2E3E57" width="7.473" height="61.459"/>
				<rect x="4165.935" y="1077.584" fill="#4EBBC0" width="7.473" height="0.01"/>
				<polygon fill="#2E3E57" points="4238.21,1016.125 4234.321,1016.125 4234.321,1077.584 4238.21,1077.584 4241.801,1077.584 
					4241.801,1016.125 				"/>
				<rect x="4238.21" y="1077.584" fill="#4EBBC0" width="3.591" height="0.01"/>
				<rect x="4234.321" y="1077.584" fill="#4EBBC0" width="3.889" height="0.01"/>
				<rect x="4217.229" y="1016.125" fill="#2E3E57" width="7.474" height="61.459"/>
				<rect x="4217.229" y="1077.584" fill="#4EBBC0" width="7.474" height="0.01"/>
				<rect x="4285.616" y="1016.125" fill="#2E3E57" width="7.471" height="61.459"/>
				<rect x="4285.616" y="1077.584" fill="#4EBBC0" width="7.471" height="0.01"/>
				<rect x="4183.033" y="1016.125" fill="#2E3E57" width="7.472" height="61.459"/>
				<rect x="4183.033" y="1077.584" fill="#4EBBC0" width="7.472" height="0.01"/>
				<rect x="4302.712" y="1016.125" fill="#2E3E57" width="7.475" height="61.459"/>
				<rect x="4302.712" y="1077.584" fill="#4EBBC0" width="7.475" height="0.01"/>
				<rect x="4319.813" y="1016.125" fill="#2E3E57" width="7.473" height="61.469"/>
				<rect x="4200.13" y="1016.125" fill="#2E3E57" width="7.471" height="61.459"/>
				<rect x="4200.13" y="1077.584" fill="#4EBBC0" width="7.471" height="0.01"/>
				<rect x="4336.905" y="1016.125" fill="#2E3E57" width="6.572" height="61.469"/>
				<rect x="4132.942" y="1016.125" fill="#2E3E57" width="6.268" height="61.469"/>
				<rect x="4139.21" y="1016.125" fill="#32515E" width="9.623" height="61.469"/>
				<polygon fill="#32515E" points="4165.935,1077.584 4165.935,1016.125 4156.308,1016.125 4156.308,1077.594 4163.626,1077.594 
					4163.626,1077.584 				"/>
				<rect x="4163.626" y="1077.584" fill="#75CCD5" width="2.309" height="0.01"/>
				<rect x="4173.407" y="1016.125" fill="#32515E" width="9.626" height="61.459"/>
				<rect x="4173.407" y="1077.584" fill="#75CCD5" width="9.626" height="0.01"/>
				<rect x="4190.505" y="1016.125" fill="#32515E" width="9.625" height="61.459"/>
				<rect x="4190.505" y="1077.584" fill="#75CCD5" width="9.625" height="0.01"/>
				<rect x="4207.601" y="1016.125" fill="#32515E" width="9.628" height="61.459"/>
				<rect x="4207.601" y="1077.584" fill="#75CCD5" width="9.628" height="0.01"/>
				<rect x="4224.702" y="1016.125" fill="#32515E" width="9.619" height="61.459"/>
				<rect x="4224.702" y="1077.584" fill="#75CCD5" width="9.619" height="0.01"/>
				<rect x="4241.801" y="1016.125" fill="#32515E" width="9.622" height="61.459"/>
				<rect x="4241.801" y="1077.584" fill="#75CCD5" width="9.622" height="0.01"/>
				<rect x="4258.896" y="1016.125" fill="#32515E" width="9.622" height="61.459"/>
				<rect x="4258.896" y="1077.584" fill="#75CCD5" width="9.622" height="0.01"/>
				<rect x="4275.985" y="1016.125" fill="#32515E" width="9.631" height="61.459"/>
				<rect x="4275.985" y="1077.584" fill="#75CCD5" width="9.631" height="0.01"/>
				<rect x="4293.087" y="1016.125" fill="#32515E" width="9.625" height="61.459"/>
				<rect x="4293.087" y="1077.584" fill="#75CCD5" width="9.625" height="0.01"/>
				<polygon fill="#32515E" points="4312.794,1077.584 4312.794,1077.594 4319.813,1077.594 4319.813,1016.125 4310.187,1016.125 
					4310.187,1077.584 				"/>
				<rect x="4310.187" y="1077.584" fill="#75CCD5" width="2.607" height="0.01"/>
				<rect x="4327.286" y="1016.125" fill="#32515E" width="9.619" height="61.469"/>
			</g>
			<g>
				<path fill="#D6D5D3" d="M3145.883,1101.123v-23.529h-3.889h-9.619h-7.475h-9.627h-7.471h-9.625h-7.473h-9.625h-7.473h-2.309
					v24.401c3.926-0.578,7.928-0.873,11.988-0.873H3145.883z"/>
				<path fill="#E9E6E3" d="M3210.385,1077.594h-9.625h-7.471h-9.631h-7.467h-9.623h-7.473h-9.623h-3.59v23.529h62.594
					c4.064,0,8.064,0.295,11.99,0.873v-24.401h-2.607H3210.385z"/>
				<path fill="#FFFAF6" d="M3302.633,1209.386c0-55.111-35.828-100.62-82.166-107.39c-3.926-0.578-7.926-0.873-11.99-0.873h-62.594
					v22.755v101.114h79.039c29.627,0,53.623,27.605,53.623,61.646v41.776c0,34.049-23.996,61.648-53.623,61.648h-79.039v86.695
					h144.869c4.336,0,8.063-2.775,10.039-6.836h0.441c0.061-0.407,0.086-0.818,0.143-1.222c0.59-1.603,0.93-3.377,0.93-5.229
					c0-0.554-0.09-1.078-0.15-1.621c0.289-3.254,0.479-6.532,0.479-9.874V1209.386z"/>
				<path fill="#E8E4E2" d="M3083.287,1101.123c-4.061,0-8.063,0.295-11.988,0.873c-46.344,6.771-82.168,52.279-82.168,107.39
					v242.589c0,3.333,0.186,6.601,0.469,9.841c-0.061,0.545-0.148,1.09-0.148,1.654c0,1.873,0.342,3.637,0.943,5.246
					c0.055,0.395,0.084,0.809,0.137,1.206h0.43c1.98,4.061,5.709,6.836,10.045,6.836h144.877v-86.695h-79.041
					c-29.627,0-53.627-27.599-53.627-61.648v-41.776c0-34.041,24-61.646,53.627-61.646h79.041v-101.114v-22.755H3083.287z"/>
				<path fill="#B7342E" d="M3013.215,1286.638v41.776c0,34.049,24,61.648,53.627,61.648h79.041v-22.377h-73.918v-24.933h73.918
					v-20.729h-94.385v-24.936h94.385v-20.731h-94.385v-24.93h94.385v-26.435h-79.041
					C3037.215,1224.992,3013.215,1252.597,3013.215,1286.638z"/>
				<path fill="#C23C2F" d="M3240.258,1251.427v24.93h-94.375v20.731h94.375v24.936h-94.375v20.729h73.918v24.933h-73.918v22.377
					h79.039c29.627,0,53.623-27.599,53.623-61.648v-41.776c0-34.041-23.996-61.646-53.623-61.646h-79.039v26.435H3240.258z"/>
				<rect x="3051.498" y="1251.427" fill="#E29591" width="94.385" height="24.93"/>
				<rect x="3145.883" y="1251.427" fill="#E29591" width="94.375" height="24.93"/>
				<rect x="3051.498" y="1297.088" fill="#E29591" width="94.385" height="24.936"/>
				<rect x="3145.883" y="1297.088" fill="#E29591" width="94.375" height="24.936"/>
				<rect x="3145.883" y="1342.752" fill="#E29591" width="73.918" height="24.933"/>
				<rect x="3071.965" y="1342.752" fill="#E29591" width="73.918" height="24.933"/>
				<rect x="3176.191" y="1016.125" fill="#C23C2F" width="7.467" height="61.459"/>
				<rect x="3176.191" y="1077.584" fill="#4EBBC0" width="7.467" height="0.01"/>
				<rect x="3159.096" y="1016.125" fill="#C23C2F" width="7.473" height="61.459"/>
				<rect x="3159.096" y="1077.584" fill="#4EBBC0" width="7.473" height="0.01"/>
				<rect x="3056.506" y="1016.125" fill="#C23C2F" width="7.475" height="61.469"/>
				<rect x="3073.607" y="1016.125" fill="#C23C2F" width="7.473" height="61.459"/>
				<rect x="3073.607" y="1077.584" fill="#4EBBC0" width="7.473" height="0.01"/>
				<polygon fill="#C23C2F" points="3145.883,1016.125 3141.994,1016.125 3141.994,1077.584 3145.883,1077.584 3149.473,1077.584 
					3149.473,1016.125 				"/>
				<rect x="3145.883" y="1077.584" fill="#4EBBC0" width="3.59" height="0.01"/>
				<rect x="3141.994" y="1077.584" fill="#4EBBC0" width="3.889" height="0.01"/>
				<rect x="3124.9" y="1016.125" fill="#C23C2F" width="7.475" height="61.459"/>
				<rect x="3124.9" y="1077.584" fill="#4EBBC0" width="7.475" height="0.01"/>
				<rect x="3193.289" y="1016.125" fill="#C23C2F" width="7.471" height="61.459"/>
				<rect x="3193.289" y="1077.584" fill="#4EBBC0" width="7.471" height="0.01"/>
				<rect x="3090.705" y="1016.125" fill="#C23C2F" width="7.473" height="61.459"/>
				<rect x="3090.705" y="1077.584" fill="#4EBBC0" width="7.473" height="0.01"/>
				<rect x="3210.385" y="1016.125" fill="#C23C2F" width="7.475" height="61.459"/>
				<rect x="3210.385" y="1077.584" fill="#4EBBC0" width="7.475" height="0.01"/>
				<rect x="3227.486" y="1016.125" fill="#C23C2F" width="7.473" height="61.469"/>
				<rect x="3107.803" y="1016.125" fill="#C23C2F" width="7.471" height="61.459"/>
				<rect x="3107.803" y="1077.584" fill="#4EBBC0" width="7.471" height="0.01"/>
				<rect x="3244.578" y="1016.125" fill="#C23C2F" width="6.572" height="61.469"/>
				<rect x="3040.615" y="1016.125" fill="#C23C2F" width="6.268" height="61.469"/>
				<rect x="3046.883" y="1016.125" fill="#E29591" width="9.623" height="61.469"/>
				<polygon fill="#E29591" points="3073.607,1077.584 3073.607,1016.125 3063.98,1016.125 3063.98,1077.594 3071.299,1077.594 
					3071.299,1077.584 				"/>
				<rect x="3071.299" y="1077.584" fill="#75CCD5" width="2.309" height="0.01"/>
				<rect x="3081.08" y="1016.125" fill="#E29591" width="9.625" height="61.459"/>
				<rect x="3081.08" y="1077.584" fill="#75CCD5" width="9.625" height="0.01"/>
				<rect x="3098.178" y="1016.125" fill="#E29591" width="9.625" height="61.459"/>
				<rect x="3098.178" y="1077.584" fill="#75CCD5" width="9.625" height="0.01"/>
				<rect x="3115.273" y="1016.125" fill="#E29591" width="9.627" height="61.459"/>
				<rect x="3115.273" y="1077.584" fill="#75CCD5" width="9.627" height="0.01"/>
				<rect x="3132.375" y="1016.125" fill="#E29591" width="9.619" height="61.459"/>
				<rect x="3132.375" y="1077.584" fill="#75CCD5" width="9.619" height="0.01"/>
				<rect x="3149.473" y="1016.125" fill="#E29591" width="9.623" height="61.459"/>
				<rect x="3149.473" y="1077.584" fill="#75CCD5" width="9.623" height="0.01"/>
				<rect x="3166.568" y="1016.125" fill="#E29591" width="9.623" height="61.459"/>
				<rect x="3166.568" y="1077.584" fill="#75CCD5" width="9.623" height="0.01"/>
				<rect x="3183.658" y="1016.125" fill="#E29591" width="9.631" height="61.459"/>
				<rect x="3183.658" y="1077.584" fill="#75CCD5" width="9.631" height="0.01"/>
				<rect x="3200.76" y="1016.125" fill="#E29591" width="9.625" height="61.459"/>
				<rect x="3200.76" y="1077.584" fill="#75CCD5" width="9.625" height="0.01"/>
				<polygon fill="#E29591" points="3220.467,1077.584 3220.467,1077.594 3227.486,1077.594 3227.486,1016.125 3217.859,1016.125 
					3217.859,1077.584 				"/>
				<rect x="3217.859" y="1077.584" fill="#75CCD5" width="2.607" height="0.01"/>
				<rect x="3234.959" y="1016.125" fill="#E29591" width="9.619" height="61.469"/>
			</g>
			<g>
				<path fill="#D6D5D3" d="M3509.992,1101.123v-23.529h-3.889h-9.619h-7.474h-9.628h-7.471h-9.625h-7.472h-9.626h-7.473h-2.309
					v24.401c3.926-0.578,7.928-0.873,11.988-0.873H3509.992z"/>
				<path fill="#E9E6E3" d="M3574.494,1077.594h-9.625h-7.471h-9.631h-7.467h-9.622h-7.474h-9.623h-3.59v23.529h62.594
					c4.064,0,8.064,0.295,11.99,0.873v-24.401h-2.607H3574.494z"/>
				<path fill="#FFFAF6" d="M3666.742,1209.386c0-55.111-35.827-100.62-82.166-107.39c-3.926-0.578-7.926-0.873-11.99-0.873h-62.594
					v22.755v101.114h79.04c29.626,0,53.622,27.605,53.622,61.646v41.776c0,34.049-23.996,61.648-53.622,61.648h-79.04v86.695
					h144.869c4.336,0,8.063-2.775,10.039-6.836h0.441c0.061-0.407,0.086-0.818,0.143-1.222c0.591-1.603,0.931-3.377,0.931-5.229
					c0-0.554-0.091-1.078-0.15-1.621c0.288-3.254,0.478-6.532,0.478-9.874V1209.386z"/>
				<path fill="#E8E4E2" d="M3447.396,1101.123c-4.061,0-8.063,0.295-11.988,0.873c-46.344,6.771-82.168,52.279-82.168,107.39
					v242.589c0,3.333,0.186,6.601,0.469,9.841c-0.061,0.545-0.147,1.09-0.147,1.654c0,1.873,0.341,3.637,0.943,5.246
					c0.054,0.395,0.083,0.809,0.137,1.206h0.429c1.981,4.061,5.71,6.836,10.046,6.836h144.876v-86.695h-79.041
					c-29.627,0-53.627-27.599-53.627-61.648v-41.776c0-34.041,24-61.646,53.627-61.646h79.041v-101.114v-22.755H3447.396z"/>
				<path fill="#B7342E" d="M3377.324,1286.638v41.776c0,34.049,24,61.648,53.627,61.648h79.041v-22.377h-73.918v-24.933h73.918
					v-20.729h-94.385v-24.936h94.385v-20.731h-94.385v-24.93h94.385v-26.435h-79.041
					C3401.324,1224.992,3377.324,1252.597,3377.324,1286.638z"/>
				<path fill="#C23C2F" d="M3604.367,1251.427v24.93h-94.375v20.731h94.375v24.936h-94.375v20.729h73.918v24.933h-73.918v22.377
					h79.04c29.626,0,53.622-27.599,53.622-61.648v-41.776c0-34.041-23.996-61.646-53.622-61.646h-79.04v26.435H3604.367z"/>
				<rect x="3415.607" y="1251.427" fill="#E29591" width="94.385" height="24.93"/>
				<rect x="3509.992" y="1251.427" fill="#E29591" width="94.375" height="24.93"/>
				<rect x="3415.607" y="1297.088" fill="#E29591" width="94.385" height="24.936"/>
				<rect x="3509.992" y="1297.088" fill="#E29591" width="94.375" height="24.936"/>
				<rect x="3509.992" y="1342.752" fill="#E29591" width="73.918" height="24.933"/>
				<rect x="3436.074" y="1342.752" fill="#E29591" width="73.918" height="24.933"/>
				<rect x="3540.301" y="1016.125" fill="#C23C2F" width="7.467" height="61.459"/>
				<rect x="3540.301" y="1077.584" fill="#4EBBC0" width="7.467" height="0.01"/>
				<rect x="3523.205" y="1016.125" fill="#C23C2F" width="7.474" height="61.459"/>
				<rect x="3523.205" y="1077.584" fill="#4EBBC0" width="7.474" height="0.01"/>
				<rect x="3420.615" y="1016.125" fill="#C23C2F" width="7.475" height="61.469"/>
				<rect x="3437.717" y="1016.125" fill="#C23C2F" width="7.473" height="61.459"/>
				<rect x="3437.717" y="1077.584" fill="#4EBBC0" width="7.473" height="0.01"/>
				<polygon fill="#C23C2F" points="3509.992,1016.125 3506.104,1016.125 3506.104,1077.584 3509.992,1077.584 3513.582,1077.584 
					3513.582,1016.125 				"/>
				<rect x="3509.992" y="1077.584" fill="#4EBBC0" width="3.59" height="0.01"/>
				<rect x="3506.104" y="1077.584" fill="#4EBBC0" width="3.889" height="0.01"/>
				<rect x="3489.011" y="1016.125" fill="#C23C2F" width="7.474" height="61.459"/>
				<rect x="3489.011" y="1077.584" fill="#4EBBC0" width="7.474" height="0.01"/>
				<rect x="3557.398" y="1016.125" fill="#C23C2F" width="7.471" height="61.459"/>
				<rect x="3557.398" y="1077.584" fill="#4EBBC0" width="7.471" height="0.01"/>
				<rect x="3454.815" y="1016.125" fill="#C23C2F" width="7.472" height="61.459"/>
				<rect x="3454.815" y="1077.584" fill="#4EBBC0" width="7.472" height="0.01"/>
				<rect x="3574.494" y="1016.125" fill="#C23C2F" width="7.475" height="61.459"/>
				<rect x="3574.494" y="1077.584" fill="#4EBBC0" width="7.475" height="0.01"/>
				<rect x="3591.596" y="1016.125" fill="#C23C2F" width="7.473" height="61.469"/>
				<rect x="3471.912" y="1016.125" fill="#C23C2F" width="7.471" height="61.459"/>
				<rect x="3471.912" y="1077.584" fill="#4EBBC0" width="7.471" height="0.01"/>
				<rect x="3608.688" y="1016.125" fill="#C23C2F" width="6.572" height="61.469"/>
				<rect x="3404.725" y="1016.125" fill="#C23C2F" width="6.268" height="61.469"/>
				<rect x="3410.992" y="1016.125" fill="#E29591" width="9.623" height="61.469"/>
				<polygon fill="#E29591" points="3437.717,1077.584 3437.717,1016.125 3428.09,1016.125 3428.09,1077.594 3435.408,1077.594 
					3435.408,1077.584 				"/>
				<rect x="3435.408" y="1077.584" fill="#75CCD5" width="2.309" height="0.01"/>
				<rect x="3445.189" y="1016.125" fill="#E29591" width="9.626" height="61.459"/>
				<rect x="3445.189" y="1077.584" fill="#75CCD5" width="9.626" height="0.01"/>
				<rect x="3462.287" y="1016.125" fill="#E29591" width="9.625" height="61.459"/>
				<rect x="3462.287" y="1077.584" fill="#75CCD5" width="9.625" height="0.01"/>
				<rect x="3479.383" y="1016.125" fill="#E29591" width="9.628" height="61.459"/>
				<rect x="3479.383" y="1077.584" fill="#75CCD5" width="9.628" height="0.01"/>
				<rect x="3496.484" y="1016.125" fill="#E29591" width="9.619" height="61.459"/>
				<rect x="3496.484" y="1077.584" fill="#75CCD5" width="9.619" height="0.01"/>
				<rect x="3513.582" y="1016.125" fill="#E29591" width="9.623" height="61.459"/>
				<rect x="3513.582" y="1077.584" fill="#75CCD5" width="9.623" height="0.01"/>
				<rect x="3530.679" y="1016.125" fill="#E29591" width="9.622" height="61.459"/>
				<rect x="3530.679" y="1077.584" fill="#75CCD5" width="9.622" height="0.01"/>
				<rect x="3547.768" y="1016.125" fill="#E29591" width="9.631" height="61.459"/>
				<rect x="3547.768" y="1077.584" fill="#75CCD5" width="9.631" height="0.01"/>
				<rect x="3564.869" y="1016.125" fill="#E29591" width="9.625" height="61.459"/>
				<rect x="3564.869" y="1077.584" fill="#75CCD5" width="9.625" height="0.01"/>
				<polygon fill="#E29591" points="3584.576,1077.584 3584.576,1077.594 3591.596,1077.594 3591.596,1016.125 3581.969,1016.125 
					3581.969,1077.584 				"/>
				<rect x="3581.969" y="1077.584" fill="#75CCD5" width="2.607" height="0.01"/>
				<rect x="3599.068" y="1016.125" fill="#E29591" width="9.619" height="61.469"/>
			</g>
		</g>
		<g clip-path="url(#SVGID_2_)">
			<g>
				<g>
					<path fill="#FFFFFF" d="M1512.465,296v304.427h272V114.601C1661.063,139.919,1562.365,237.244,1512.465,296z"/>
					<path fill="#FF9A55" d="M1512.465,48.427V296c49.9-58.756,148.598-156.081,272-181.399V48.427H1512.465z"/>
				</g>
				<rect x="1535.715" y="284.427" fill="#9CA2A0" width="224" height="16"/>
				<rect x="1535.715" y="314.427" fill="#9CA2A0" width="224" height="16"/>
				<rect x="1535.715" y="345.427" fill="#9CA2A0" width="224" height="16"/>
				<rect x="1535.715" y="379.427" fill="#9CA2A0" width="224" height="25"/>
				<rect x="1535.715" y="427.427" fill="#9CA2A0" width="224" height="25"/>
				<rect x="1540.298" y="473.427" fill="#FFC153" width="216" height="95"/>
			</g>
			<g>
				<g>
					<path fill="#FFFFFF" d="M1876.465,296v304.427h272V114.601C2025.063,139.919,1926.365,237.244,1876.465,296z"/>
					<path fill="#FF9A55" d="M1876.465,48.427V296c49.9-58.756,148.598-156.081,272-181.399V48.427H1876.465z"/>
				</g>
				<rect x="1899.715" y="284.427" fill="#9CA2A0" width="224" height="16"/>
				<rect x="1899.715" y="314.427" fill="#9CA2A0" width="224" height="16"/>
				<rect x="1899.715" y="345.427" fill="#9CA2A0" width="224" height="16"/>
				<rect x="1899.715" y="379.427" fill="#9CA2A0" width="224" height="25"/>
				<rect x="1899.715" y="427.427" fill="#9CA2A0" width="224" height="25"/>
				<rect x="1904.298" y="473.427" fill="#FFC153" width="216" height="95"/>
			</g>
			<g>
				<g>
					<rect x="2797.354" y="196.427" fill="#FFFFFF" width="109.755" height="402.432"/>
					<rect x="3060.764" y="196.427" fill="#FFFFFF" width="307.312" height="402.432"/>
					<rect x="2907.108" y="196.427" fill="#FF867B" width="153.655" height="402.432"/>
				</g>
				<rect x="3090.965" y="263.427" fill="#9CA2A0" width="240" height="40"/>
				<rect x="3070.965" y="376.427" fill="#9CA2A0" width="280" height="27"/>
				<rect x="3070.965" y="432.427" fill="#9CA2A0" width="280" height="27"/>
				<rect x="3070.965" y="493.427" fill="#9CA2A0" width="280" height="27"/>
			</g>
			<g>
				<g>
					<path fill="#FFFBFF" d="M2300.515,482.818v116.041h440v-330h-33.644C2450.426,295.821,2344.31,402.95,2300.515,482.818z"/>
					<path fill="#FF867B" d="M2300.715,482.818c44-79.868,149.711-187.391,406.156-214.391h-406.156V482.818z"/>
				</g>
				<rect x="2379.715" y="427.427" fill="#9CA2A0" width="281" height="24"/>
				<rect x="2379.715" y="464.427" fill="#9CA2A0" width="281" height="24"/>
				<rect x="2317.715" y="525.427" fill="#C6C5C4" width="406" height="14"/>
				<rect x="2317.715" y="552.427" fill="#C6C5C4" width="406" height="14"/>
			</g>
			<rect x="-405.285" y="610.427" fill="#D4E3E6" width="5000" height="108"/>
			<g>
				<g>
					<rect x="-311.646" y="194.427" fill="#FFFFFF" width="109.754" height="402.432"/>
					<rect x="-48.236" y="194.427" fill="#FFFFFF" width="307.311" height="402.432"/>
					<rect x="-201.892" y="194.427" fill="#FF867B" width="153.656" height="402.432"/>
				</g>
				<rect x="-18.035" y="261.427" fill="#9CA2A0" width="240" height="40"/>
				<rect x="-38.035" y="374.427" fill="#9CA2A0" width="280" height="27"/>
				<rect x="-38.035" y="430.427" fill="#9CA2A0" width="280" height="27"/>
				<rect x="-38.035" y="491.427" fill="#9CA2A0" width="280" height="27"/>
			</g>
			<g>
				<g>
					<rect x="314.715" y="426.427" fill="#FFFFFF" width="78" height="174"/>
					<rect x="532.715" y="426.427" fill="#FFFFFF" width="379" height="174"/>
					<rect x="392.715" y="426.427" fill="#FF867B" width="140" height="174"/>
				</g>
				<rect x="588.965" y="467.427" fill="#9CA2A0" width="240" height="40"/>
				<rect x="568.965" y="536.427" fill="#9CA2A0" width="280" height="27"/>
			</g>
			<g>
				<g>
					<path fill="#FFFBFF" d="M969.515,484.386v116.041h440v-330h-33.644C1119.426,297.39,1013.31,404.518,969.515,484.386z"/>
					<path fill="#CB86DB" d="M969.515,484.386c43.795-79.868,149.911-186.997,406.356-213.959H969.515V484.386z"/>
				</g>
				<rect x="1048.715" y="429.427" fill="#CB86DB" width="281" height="24"/>
				<rect x="1048.715" y="466.427" fill="#CB86DB" width="281" height="24"/>
				<rect x="986.715" y="527.427" fill="#C6C5C4" width="406" height="14"/>
				<rect x="986.715" y="554.427" fill="#C6C5C4" width="406" height="14"/>
			</g>
			<g>
				<path fill="#D6D5D3" d="M4377.62,232.503v-23.529h-3.22h-7.962h-6.188h-7.97h-6.184h-7.968h-6.186h-7.968h-6.186h-1.911v24.401
					c3.25-0.578,6.563-0.873,9.924-0.873H4377.62z"/>
				<path fill="#E9E6E3" d="M4431.014,208.974h-7.968h-6.184h-7.973h-6.182h-7.965h-6.187h-7.965h-2.972v23.529h51.813
					c3.364,0,6.676,0.295,9.926,0.873v-24.401h-2.159H4431.014z"/>
				<path fill="#FFFAF6" d="M4507.375,340.766c0-55.111-29.658-100.62-68.016-107.39c-3.25-0.578-6.562-0.873-9.926-0.873h-51.813
					v22.755v101.114h65.427c24.524,0,44.389,27.605,44.389,61.646v41.776c0,34.049-19.864,61.648-44.389,61.648h-65.427v86.695
					h119.92c3.59,0,6.674-2.775,8.311-6.836h0.366c0.049-0.407,0.07-0.818,0.117-1.222c0.488-1.603,0.77-3.377,0.77-5.229
					c0-0.554-0.074-1.078-0.124-1.621c0.238-3.254,0.396-6.532,0.396-9.874V340.766z"/>
				<path fill="#E8E4E2" d="M4325.804,232.503c-3.361,0-6.674,0.295-9.924,0.873c-38.363,6.771-68.018,52.279-68.018,107.39v242.589
					c0,3.333,0.153,6.601,0.389,9.841c-0.051,0.545-0.123,1.09-0.123,1.654c0,1.873,0.282,3.637,0.78,5.246
					c0.046,0.395,0.069,0.809,0.113,1.206h0.355c1.64,4.061,4.726,6.836,8.315,6.836h119.928v-86.695h-65.43
					c-24.524,0-44.392-27.599-44.392-61.648v-41.776c0-34.041,19.867-61.646,44.392-61.646h65.43V255.258v-22.755H4325.804z"/>
				<path fill="#80BC86" d="M4267.799,418.018v41.776c0,34.049,19.867,61.648,44.392,61.648h65.43v-22.377h-61.189v-24.933h61.189
					v-20.729h-78.131v-24.936h78.131v-20.731h-78.131v-24.93h78.131v-26.435h-65.43
					C4287.666,356.372,4267.799,383.977,4267.799,418.018z"/>
				<path fill="#8AC48D" d="M4455.742,382.807v24.93h-78.122v20.731h78.122v24.936h-78.122v20.729h61.188v24.933h-61.188v22.377
					h65.427c24.524,0,44.389-27.599,44.389-61.648v-41.776c0-34.041-19.864-61.646-44.389-61.646h-65.427v26.435H4455.742z"/>
				<rect x="4299.489" y="382.807" fill="#E8E4E2" width="78.131" height="24.93"/>
				<rect x="4377.62" y="382.807" fill="#FFFAF6" width="78.122" height="24.93"/>
				<rect x="4299.489" y="428.468" fill="#E8E4E2" width="78.131" height="24.936"/>
				<rect x="4377.62" y="428.468" fill="#FFFAF6" width="78.122" height="24.936"/>
				<rect x="4377.62" y="474.132" fill="#FFFAF6" width="61.188" height="24.933"/>
				<rect x="4316.431" y="474.132" fill="#E8E4E2" width="61.189" height="24.933"/>
				<rect x="4402.708" y="147.505" fill="#80BC86" width="6.182" height="61.459"/>
				<rect x="4402.708" y="208.964" fill="#4EBBC0" width="6.182" height="0.01"/>
				<rect x="4388.557" y="147.505" fill="#80BC86" width="6.187" height="61.459"/>
				<rect x="4388.557" y="208.964" fill="#4EBBC0" width="6.187" height="0.01"/>
				<rect x="4303.635" y="147.505" fill="#80BC86" width="6.187" height="61.469"/>
				<rect x="4317.791" y="147.505" fill="#80BC86" width="6.186" height="61.459"/>
				<rect x="4317.791" y="208.964" fill="#4EBBC0" width="6.186" height="0.01"/>
				<polygon fill="#80BC86" points="4377.62,147.505 4374.4,147.505 4374.4,208.964 4377.62,208.964 4380.592,208.964 
					4380.592,147.505 				"/>
				<rect x="4377.62" y="208.964" fill="#4EBBC0" width="2.972" height="0.01"/>
				<rect x="4374.4" y="208.964" fill="#4EBBC0" width="3.22" height="0.01"/>
				<rect x="4360.251" y="147.505" fill="#80BC86" width="6.188" height="61.459"/>
				<rect x="4360.251" y="208.964" fill="#4EBBC0" width="6.188" height="0.01"/>
				<rect x="4416.862" y="147.505" fill="#80BC86" width="6.184" height="61.459"/>
				<rect x="4416.862" y="208.964" fill="#4EBBC0" width="6.184" height="0.01"/>
				<rect x="4331.944" y="147.505" fill="#80BC86" width="6.186" height="61.459"/>
				<rect x="4331.944" y="208.964" fill="#4EBBC0" width="6.186" height="0.01"/>
				<rect x="4431.014" y="147.505" fill="#80BC86" width="6.187" height="61.459"/>
				<rect x="4431.014" y="208.964" fill="#4EBBC0" width="6.187" height="0.01"/>
				<rect x="4445.17" y="147.505" fill="#80BC86" width="6.186" height="61.469"/>
				<rect x="4346.098" y="147.505" fill="#80BC86" width="6.184" height="61.459"/>
				<rect x="4346.098" y="208.964" fill="#4EBBC0" width="6.184" height="0.01"/>
				<rect x="4459.318" y="147.505" fill="#80BC86" width="5.44" height="61.469"/>
				<rect x="4290.48" y="147.505" fill="#80BC86" width="5.188" height="61.469"/>
				<rect x="4295.669" y="147.505" fill="#8AC48D" width="7.966" height="61.469"/>
				<polygon fill="#8AC48D" points="4317.791,208.964 4317.791,147.505 4309.821,147.505 4309.821,208.974 4315.88,208.974 
					4315.88,208.964 				"/>
				<rect x="4315.88" y="208.964" fill="#75CCD5" width="1.911" height="0.01"/>
				<rect x="4323.977" y="147.505" fill="#8AC48D" width="7.968" height="61.459"/>
				<rect x="4323.977" y="208.964" fill="#75CCD5" width="7.968" height="0.01"/>
				<rect x="4338.13" y="147.505" fill="#8AC48D" width="7.968" height="61.459"/>
				<rect x="4338.13" y="208.964" fill="#75CCD5" width="7.968" height="0.01"/>
				<rect x="4352.281" y="147.505" fill="#8AC48D" width="7.97" height="61.459"/>
				<rect x="4352.281" y="208.964" fill="#75CCD5" width="7.97" height="0.01"/>
				<rect x="4366.438" y="147.505" fill="#8AC48D" width="7.962" height="61.459"/>
				<rect x="4366.438" y="208.964" fill="#75CCD5" width="7.962" height="0.01"/>
				<rect x="4380.592" y="147.505" fill="#8AC48D" width="7.965" height="61.459"/>
				<rect x="4380.592" y="208.964" fill="#75CCD5" width="7.965" height="0.01"/>
				<rect x="4394.743" y="147.505" fill="#8AC48D" width="7.965" height="61.459"/>
				<rect x="4394.743" y="208.964" fill="#75CCD5" width="7.965" height="0.01"/>
				<rect x="4408.89" y="147.505" fill="#8AC48D" width="7.973" height="61.459"/>
				<rect x="4408.89" y="208.964" fill="#75CCD5" width="7.973" height="0.01"/>
				<rect x="4423.046" y="147.505" fill="#8AC48D" width="7.968" height="61.459"/>
				<rect x="4423.046" y="208.964" fill="#75CCD5" width="7.968" height="0.01"/>
				<polygon fill="#8AC48D" points="4439.359,208.964 4439.359,208.974 4445.17,208.974 4445.17,147.505 4437.2,147.505 
					4437.2,208.964 				"/>
				<rect x="4437.2" y="208.964" fill="#75CCD5" width="2.159" height="0.01"/>
				<rect x="4451.355" y="147.505" fill="#8AC48D" width="7.963" height="61.469"/>
			</g>
			<g>
				<g>
					<rect x="4037.715" y="201.427" fill="#FFFAF6" width="127" height="12"/>
					<rect x="4037.715" y="226.427" fill="#FFFAF6" width="127" height="382"/>
					<rect x="4037.715" y="187.427" fill="#D3615B" width="127" height="14"/>
					<rect x="4037.715" y="213.427" fill="#D3615B" width="127" height="13"/>
				</g>
				<g>
					<rect x="4037.715" y="138.427" fill="#A5A4A4" width="127" height="43"/>
					<rect x="4037.715" y="181.427" fill="#FFFAF6" width="127" height="6"/>
				</g>
				<rect x="4018.715" y="133.427" fill="#FFFAF6" width="166" height="42"/>
				<rect x="4037.715" y="551.427" fill="#D3615B" width="127" height="14"/>
				<rect x="4037.715" y="576.427" fill="#D3615B" width="127" height="14"/>
				<rect x="4066.715" y="273.427" fill="#D3615B" width="10" height="215"/>
				<rect x="4111.715" y="273.427" fill="#D3615B" width="10" height="215"/>
				<rect x="4128.715" y="273.427" fill="#D3615B" width="10" height="215"/>
			</g>
			<g>
				<g>
					<rect x="3791.715" y="201.427" fill="#FFFAF6" width="127" height="12"/>
					<rect x="3791.715" y="226.427" fill="#FFFAF6" width="127" height="382"/>
					<rect x="3791.715" y="187.427" fill="#D1C85D" width="127" height="14"/>
					<rect x="3791.715" y="213.427" fill="#D1C85D" width="127" height="13"/>
				</g>
				<g>
					<rect x="3791.715" y="138.427" fill="#A5A4A4" width="127" height="43"/>
					<rect x="3791.715" y="181.427" fill="#FFFAF6" width="127" height="6"/>
				</g>
				<rect x="3772.715" y="133.427" fill="#FFFAF6" width="166" height="42"/>
				<rect x="3791.715" y="551.427" fill="#D1C85D" width="127" height="14"/>
				<rect x="3791.715" y="576.427" fill="#D1C85D" width="127" height="14"/>
				<rect x="3820.715" y="273.427" fill="#D1C85D" width="10" height="215"/>
				<rect x="3865.715" y="273.427" fill="#D1C85D" width="10" height="215"/>
				<rect x="3882.715" y="273.427" fill="#D1C85D" width="10" height="215"/>
			</g>
			<g>
				<g>
					<path fill="#FFFFFF" d="M3442.465,291v304.427h272V109.601C3591.063,134.919,3492.365,232.244,3442.465,291z"/>
					<path fill="#FF9A55" d="M3442.465,43.427V291c49.9-58.756,148.598-156.081,272-181.399V43.427H3442.465z"/>
				</g>
				<rect x="3465.715" y="279.427" fill="#9CA2A0" width="224" height="16"/>
				<rect x="3465.715" y="309.427" fill="#9CA2A0" width="224" height="16"/>
				<rect x="3465.715" y="340.427" fill="#9CA2A0" width="224" height="16"/>
				<rect x="3465.715" y="374.427" fill="#9CA2A0" width="224" height="25"/>
				<rect x="3465.715" y="422.427" fill="#9CA2A0" width="224" height="25"/>
				<rect x="3470.298" y="468.427" fill="#FFC153" width="216" height="95"/>
			</g>
		</g>
		<g clip-path="url(#SVGID_2_)">
			<g>
				<g>
					<rect x="687.715" y="1973.427" fill="#FFFFFF" width="600" height="276"/>
					<rect x="687.715" y="1860.427" fill="#FFFFFF" width="600" height="42"/>
					<rect x="687.715" y="1902.427" fill="#FFC153" width="600" height="71"/>
				</g>
				<rect x="723.715" y="2009.427" fill="#9CA2A0" width="228" height="210"/>
				<rect x="1011.715" y="2009.427" fill="#9CA2A0" width="240" height="25"/>
				<rect x="1011.715" y="2055.427" fill="#9CA2A0" width="240" height="25"/>
				<rect x="1011.715" y="2101.427" fill="#9CA2A0" width="240" height="25"/>
				<rect x="1011.715" y="2147.427" fill="#9CA2A0" width="240" height="25"/>
				<rect x="1011.715" y="2193.427" fill="#9CA2A0" width="240" height="25"/>
			</g>
			<g>
				<g>
					<path fill="#FFC153" d="M1339.215,1945v304.427h272v-485.826C1487.813,1788.919,1389.115,1886.244,1339.215,1945z"/>
					<path fill="#FF9A55" d="M1339.215,1697.427V1945c49.9-58.756,148.598-156.081,272-181.399v-66.174H1339.215z"/>
				</g>
				<rect x="1383.215" y="1745.427" fill="#FFFFFF" width="184" height="104"/>
				<rect x="1362.715" y="1902.427" fill="#686868" width="224" height="16"/>
				<rect x="1362.715" y="1933.427" fill="#686868" width="224" height="16"/>
				<rect x="1362.715" y="1963.427" fill="#686868" width="224" height="16"/>
				<rect x="1362.715" y="1994.427" fill="#686868" width="224" height="16"/>
				<rect x="1362.715" y="2028.427" fill="#686868" width="224" height="25"/>
				<rect x="1362.715" y="2076.427" fill="#686868" width="224" height="25"/>
				<rect x="1367.048" y="2122.427" fill="#FFFFFF" width="216" height="95"/>
			</g>
			<g>
				<g>
					<path fill="#FFC153" d="M2616.215,1945v304.427h272v-485.826C2764.813,1788.919,2666.115,1886.244,2616.215,1945z"/>
					<path fill="#FF9A55" d="M2616.215,1697.427V1945c49.9-58.756,148.598-156.081,272-181.399v-66.174H2616.215z"/>
				</g>
				<rect x="2660.215" y="1745.427" fill="#FFFFFF" width="184" height="104"/>
				<rect x="2639.715" y="1902.427" fill="#686868" width="224" height="16"/>
				<rect x="2639.715" y="1933.427" fill="#686868" width="224" height="16"/>
				<rect x="2639.715" y="1963.427" fill="#686868" width="224" height="16"/>
				<rect x="2639.715" y="1994.427" fill="#686868" width="224" height="16"/>
				<rect x="2639.715" y="2028.427" fill="#686868" width="224" height="25"/>
				<rect x="2639.715" y="2076.427" fill="#686868" width="224" height="25"/>
				<rect x="2644.048" y="2122.427" fill="#FFFFFF" width="216" height="95"/>
			</g>
			<g>
				<g>
					<path fill="#FFC153" d="M2268.215,1945v304.427h272v-485.826C2416.813,1788.919,2318.115,1886.244,2268.215,1945z"/>
					<path fill="#FF9A55" d="M2268.215,1697.427V1945c49.9-58.756,148.598-156.081,272-181.399v-66.174H2268.215z"/>
				</g>
				<rect x="2312.215" y="1745.427" fill="#FFFFFF" width="184" height="104"/>
				<rect x="2291.715" y="1902.427" fill="#686868" width="224" height="16"/>
				<rect x="2291.715" y="1933.427" fill="#686868" width="224" height="16"/>
				<rect x="2291.715" y="1963.427" fill="#686868" width="224" height="16"/>
				<rect x="2291.715" y="1994.427" fill="#686868" width="224" height="16"/>
				<rect x="2291.715" y="2028.427" fill="#686868" width="224" height="25"/>
				<rect x="2291.715" y="2076.427" fill="#686868" width="224" height="25"/>
				<rect x="2296.048" y="2122.427" fill="#FFFFFF" width="216" height="95"/>
			</g>
			<g>
				<g>
					<rect x="3944.715" y="2075.427" fill="#FFFFFF" width="78" height="174"/>
					<rect x="4162.715" y="2075.427" fill="#FFFFFF" width="379" height="174"/>
					<rect x="4022.715" y="2075.427" fill="#C0D1F2" width="140" height="174"/>
				</g>
				<rect x="4218.965" y="2116.427" fill="#9CA2A0" width="240" height="40"/>
				<rect x="4198.965" y="2185.427" fill="#9CA2A0" width="280" height="27"/>
			</g>
			<g>
				<g>
					<rect x="3114.764" y="1842.427" fill="#FFFFFF" width="307.312" height="402.432"/>
					<rect x="2961.108" y="1842.427" fill="#FF867B" width="153.655" height="402.432"/>
				</g>
				<rect x="3144.965" y="1909.427" fill="#9CA2A0" width="240" height="40"/>
				<rect x="3124.965" y="2022.427" fill="#9CA2A0" width="280" height="27"/>
				<rect x="3124.965" y="2078.427" fill="#9CA2A0" width="280" height="27"/>
				<rect x="3124.965" y="2139.427" fill="#9CA2A0" width="280" height="27"/>
			</g>
			<rect x="-405.285" y="2249.505" fill="#D4E3E6" width="5000" height="108"/>
			<g>
				<rect x="3685.34" y="2010.427" fill="#FF847E" width="204" height="240"/>
				<path fill="#FF847E" d="M3889.34,1789.427h-204v160h204V1789.427z M3699.715,1918.427v-102h175v102H3699.715z"/>
				<rect x="3685.34" y="1973.427" fill="#FF847E" width="204" height="13"/>
				<rect x="3685.715" y="1986.427" fill="#FFFAF6" width="204" height="24"/>
				<rect x="3685.715" y="1949.427" fill="#FFFAF6" width="204" height="24"/>
				<rect x="3699.715" y="1816.427" fill="#FFFAF6" width="175" height="102"/>
			</g>
			<g>
				<path fill="#D6D5D3" d="M3569.187,1979.408v-16.99h-2.324h-5.749h-4.468h-5.754h-4.465h-5.754h-4.467h-5.752h-4.467h-1.38
					v17.619c2.347-0.417,4.738-0.629,7.165-0.629H3569.187z"/>
				<path fill="#E9E6E3" d="M3607.739,1962.418h-5.752h-4.465h-5.758h-4.463h-5.751h-4.467h-5.752h-2.146v16.99h37.412
					c2.43,0,4.82,0.212,7.168,0.629v-17.619h-1.56H3607.739z"/>
				<path fill="#FFFAF6" d="M3662.877,2057.579c0-39.793-21.415-72.653-49.11-77.542c-2.348-0.417-4.738-0.629-7.168-0.629h-37.412
					v16.43v73.009h47.242c17.707,0,32.051,19.933,32.051,44.512v30.165c0,24.585-14.344,44.513-32.051,44.513h-47.242v62.599h86.589
					c2.593,0,4.819-2.004,6.001-4.936h0.264c0.035-0.294,0.051-0.591,0.085-0.883c0.353-1.157,0.556-2.438,0.556-3.776
					c0-0.4-0.053-0.778-0.09-1.17c0.172-2.35,0.286-4.716,0.286-7.129V2057.579z"/>
				<path fill="#E8E4E2" d="M3531.772,1979.408c-2.427,0-4.818,0.212-7.165,0.629c-27.7,4.889-49.112,37.749-49.112,77.542v175.163
					c0,2.406,0.111,4.766,0.281,7.105c-0.037,0.394-0.09,0.787-0.09,1.194c0,1.352,0.204,2.626,0.563,3.788
					c0.033,0.285,0.05,0.584,0.082,0.871h0.257c1.184,2.932,3.412,4.936,6.004,4.936h86.594v-62.599h-47.243
					c-17.708,0-32.054-19.928-32.054-44.513v-30.165c0-24.579,14.346-44.512,32.054-44.512h47.243v-73.009v-16.43H3531.772z"/>
				<path fill="#E57505" d="M3489.89,2113.359v30.165c0,24.585,14.346,44.513,32.054,44.513h47.243v-16.158h-44.182v-18.003h44.182
					v-14.967h-56.414v-18.005h56.414v-14.969h-56.414v-18h56.414v-19.088h-47.243
					C3504.235,2068.847,3489.89,2088.78,3489.89,2113.359z"/>
				<path fill="#FF8500" d="M3625.595,2087.935v18h-56.408v14.969h56.408v18.005h-56.408v14.967h44.182v18.003h-44.182v16.158
					h47.242c17.707,0,32.051-19.928,32.051-44.513v-30.165c0-24.579-14.344-44.512-32.051-44.512h-47.242v19.088H3625.595z"/>
				<rect x="3512.772" y="2087.935" fill="#E8E4E2" width="56.414" height="18"/>
				<rect x="3569.187" y="2087.935" fill="#FFFAF6" width="56.408" height="18"/>
				<rect x="3512.772" y="2120.905" fill="#E8E4E2" width="56.414" height="18.005"/>
				<rect x="3569.187" y="2120.905" fill="#FFFAF6" width="56.408" height="18.005"/>
				<rect x="3569.187" y="2153.876" fill="#FFFAF6" width="44.182" height="18.003"/>
				<rect x="3525.005" y="2153.876" fill="#E8E4E2" width="44.182" height="18.003"/>
				<rect x="3587.302" y="1918.035" fill="#FFCE00" width="4.463" height="44.377"/>
				<rect x="3587.302" y="1962.412" fill="#4EBBC0" width="4.463" height="0.007"/>
				<rect x="3577.084" y="1918.035" fill="#FFCE00" width="4.467" height="44.377"/>
				<rect x="3577.084" y="1962.412" fill="#4EBBC0" width="4.467" height="0.007"/>
				<rect x="3515.766" y="1918.035" fill="#FFCE00" width="4.468" height="44.384"/>
				<rect x="3525.987" y="1918.035" fill="#FFCE00" width="4.467" height="44.377"/>
				<rect x="3525.987" y="1962.412" fill="#4EBBC0" width="4.467" height="0.007"/>
				<polygon fill="#FFCE00" points="3569.187,1918.035 3566.862,1918.035 3566.862,1962.412 3569.187,1962.412 3571.332,1962.412 
					3571.332,1918.035 				"/>
				<rect x="3569.187" y="1962.412" fill="#4EBBC0" width="2.146" height="0.007"/>
				<rect x="3566.862" y="1962.412" fill="#4EBBC0" width="2.324" height="0.007"/>
				<rect x="3556.646" y="1918.035" fill="#FFCE00" width="4.468" height="44.377"/>
				<rect x="3556.646" y="1962.412" fill="#4EBBC0" width="4.468" height="0.007"/>
				<rect x="3597.522" y="1918.035" fill="#FFCE00" width="4.465" height="44.377"/>
				<rect x="3597.522" y="1962.412" fill="#4EBBC0" width="4.465" height="0.007"/>
				<rect x="3536.206" y="1918.035" fill="#FFCE00" width="4.467" height="44.377"/>
				<rect x="3536.206" y="1962.412" fill="#4EBBC0" width="4.467" height="0.007"/>
				<rect x="3607.739" y="1918.035" fill="#FFCE00" width="4.468" height="44.377"/>
				<rect x="3607.739" y="1962.412" fill="#4EBBC0" width="4.468" height="0.007"/>
				<rect x="3617.962" y="1918.035" fill="#FFCE00" width="4.466" height="44.384"/>
				<rect x="3546.427" y="1918.035" fill="#FFCE00" width="4.465" height="44.377"/>
				<rect x="3546.427" y="1962.412" fill="#4EBBC0" width="4.465" height="0.007"/>
				<rect x="3628.177" y="1918.035" fill="#FFCE00" width="3.929" height="44.384"/>
				<rect x="3506.268" y="1918.035" fill="#FFCE00" width="3.747" height="44.384"/>
				<rect x="3510.015" y="1918.035" fill="#FF8500" width="5.751" height="44.384"/>
				<polygon fill="#FF8500" points="3525.987,1962.412 3525.987,1918.035 3520.233,1918.035 3520.233,1962.418 3524.607,1962.418 
					3524.607,1962.412 				"/>
				<rect x="3524.607" y="1962.412" fill="#75CCD5" width="1.38" height="0.007"/>
				<rect x="3530.454" y="1918.035" fill="#FF8500" width="5.752" height="44.377"/>
				<rect x="3530.454" y="1962.412" fill="#75CCD5" width="5.752" height="0.007"/>
				<rect x="3540.673" y="1918.035" fill="#FF8500" width="5.754" height="44.377"/>
				<rect x="3540.673" y="1962.412" fill="#75CCD5" width="5.754" height="0.007"/>
				<rect x="3550.892" y="1918.035" fill="#FF8500" width="5.754" height="44.377"/>
				<rect x="3550.892" y="1962.412" fill="#75CCD5" width="5.754" height="0.007"/>
				<rect x="3561.113" y="1918.035" fill="#FF8500" width="5.749" height="44.377"/>
				<rect x="3561.113" y="1962.412" fill="#75CCD5" width="5.749" height="0.007"/>
				<rect x="3571.332" y="1918.035" fill="#FF8500" width="5.752" height="44.377"/>
				<rect x="3571.332" y="1962.412" fill="#75CCD5" width="5.752" height="0.007"/>
				<rect x="3581.551" y="1918.035" fill="#FF8500" width="5.751" height="44.377"/>
				<rect x="3581.551" y="1962.412" fill="#75CCD5" width="5.751" height="0.007"/>
				<rect x="3591.765" y="1918.035" fill="#FF8500" width="5.758" height="44.377"/>
				<rect x="3591.765" y="1962.412" fill="#75CCD5" width="5.758" height="0.007"/>
				<rect x="3601.987" y="1918.035" fill="#FF8500" width="5.752" height="44.377"/>
				<rect x="3601.987" y="1962.412" fill="#75CCD5" width="5.752" height="0.007"/>
				<polygon fill="#FF8500" points="3613.767,1962.412 3613.767,1962.418 3617.962,1962.418 3617.962,1918.035 3612.207,1918.035 
					3612.207,1962.412 				"/>
				<rect x="3612.207" y="1962.412" fill="#75CCD5" width="1.56" height="0.007"/>
				<rect x="3622.428" y="1918.035" fill="#FF8500" width="5.749" height="44.384"/>
			</g>
			<g>
				<rect x="-330.66" y="2006.427" fill="#FFFFFF" width="204" height="240"/>
				<path fill="#FFFFFF" d="M-126.66,1785.427h-204v160h204V1785.427z M-316.285,1914.427v-102h175v102H-316.285z"/>
				<rect x="-330.66" y="1969.427" fill="#FFFFFF" width="204" height="13"/>
				<rect x="-330.285" y="1982.427" fill="#FF847E" width="204" height="24"/>
				<rect x="-330.285" y="1945.427" fill="#FF847E" width="204" height="24"/>
				<rect x="-316.285" y="1812.427" fill="#FF847E" width="175" height="102"/>
			</g>
			<g>
				<rect x="-48.66" y="2006.427" fill="#FFFFFF" width="204" height="240"/>
				<path fill="#FFFFFF" d="M155.34,1785.427h-204v160h204V1785.427z M-34.285,1914.427v-102h175v102H-34.285z"/>
				<rect x="-48.66" y="1969.427" fill="#FFFFFF" width="204" height="13"/>
				<rect x="-48.285" y="1982.427" fill="#FFC153" width="204" height="24"/>
				<rect x="-48.285" y="1945.427" fill="#FFC153" width="204" height="24"/>
				<rect x="-34.285" y="1812.427" fill="#FFC153" width="175" height="102"/>
			</g>
			<g>
				<g>
					<rect x="467.715" y="1831.427" fill="#FFFAF6" width="127" height="12"/>
					<rect x="467.715" y="1856.427" fill="#FFFAF6" width="127" height="382"/>
					<rect x="467.715" y="1817.427" fill="#D3615B" width="127" height="14"/>
					<rect x="467.715" y="1843.427" fill="#D3615B" width="127" height="13"/>
				</g>
				<g>
					<rect x="467.715" y="1768.427" fill="#A5A4A4" width="127" height="43"/>
					<rect x="467.715" y="1811.427" fill="#FFFAF6" width="127" height="6"/>
				</g>
				<rect x="448.715" y="1763.427" fill="#FFFAF6" width="166" height="42"/>
				<rect x="467.715" y="2181.427" fill="#D3615B" width="127" height="14"/>
				<rect x="467.715" y="2206.427" fill="#D3615B" width="127" height="14"/>
				<rect x="496.715" y="1903.427" fill="#D3615B" width="10" height="215"/>
				<rect x="541.715" y="1903.427" fill="#D3615B" width="10" height="215"/>
				<rect x="558.715" y="1903.427" fill="#D3615B" width="10" height="215"/>
			</g>
			<g>
				<g>
					<rect x="221.715" y="1831.427" fill="#FFFAF6" width="127" height="12"/>
					<rect x="221.715" y="1856.427" fill="#FFFAF6" width="127" height="382"/>
					<rect x="221.715" y="1817.427" fill="#D1C85D" width="127" height="14"/>
					<rect x="221.715" y="1843.427" fill="#D1C85D" width="127" height="13"/>
				</g>
				<g>
					<rect x="221.715" y="1768.427" fill="#A5A4A4" width="127" height="43"/>
					<rect x="221.715" y="1811.427" fill="#FFFAF6" width="127" height="6"/>
				</g>
				<rect x="202.715" y="1763.427" fill="#FFFAF6" width="166" height="42"/>
				<rect x="221.715" y="2181.427" fill="#D1C85D" width="127" height="14"/>
				<rect x="221.715" y="2206.427" fill="#D1C85D" width="127" height="14"/>
				<rect x="250.715" y="1903.427" fill="#D1C85D" width="10" height="215"/>
				<rect x="295.715" y="1903.427" fill="#D1C85D" width="10" height="215"/>
				<rect x="312.715" y="1903.427" fill="#D1C85D" width="10" height="215"/>
			</g>
		</g>
		<g clip-path="url(#SVGID_2_)">
			<path fill="#EFD4B7" d="M2497.283,1356.978c-12.121,83.365,11.25,155.85,52.129,161.856c40.98,6.053,83.951-56.65,96.127-140.048
				c12.139-83.338-11.252-155.824-52.131-161.859C2552.49,1210.911,2509.459,1273.586,2497.283,1356.978z"/>
			<path fill="#DEBC9E" d="M1477.457,1350.178c8.005,82.29-16.125,151.971-53.635,155.604
				c-37.534,3.678-74.395-60.053-82.341-142.366c-7.918-82.301,16.125-151.973,53.638-155.648
				C1432.68,1204.16,1469.604,1267.882,1477.457,1350.178z"/>
			<g>
				<g>
					<path fill="#CCAC91" d="M2222.881,1955.667H1779.68v104.773h-1.488c-15.935,35.357-37.447,67.635-63.327,95.842
						c74.707-21.491,439.188-128,508.017-180.041V1955.667z"/>
					<path fill="#EFD4B7" d="M2222.881,2123.144v-146.902c-68.828,52.041-433.31,158.55-508.017,180.041
						c-29.478,32.128-64.629,58.97-103.958,78.789c43.336,61.824-5.253,189.911,62.256,224.758l46.966,92.125l37.934,66.836
						l256.503,373.916l207.73-404.625l50.578-46.965l25.289-65.029l57.805-65.029c60.646-34.609-20.309-120.256,19.422-177.37
						C2312.205,2203.348,2259.201,2182.62,2222.881,2123.144z"/>
				</g>
				<g>
					<path fill="#FFFFFF" d="M1985.305,3202.099l181.492-730.665l131.139-327.845c-6.629,0.041-12.695,0.198-18.15,0.441
						c-19.219,0.856-54.854,18.293-54.854,18.293l-242.607,135.159l-206.57-33.05c0,0-0.519-95.25-15.346-103.876
						c-16.305-9.487-41.147-15.22-72.426-16.586l137.342,428.571L1985.305,3202.099z"/>
					<path fill="#FFFFFF" d="M2915.509,2395.649c-236.094-220.354-506.232-252.743-617.326-252.061l-131.139,327.845
						l-177.354,739.655l-133.283-419.553l-168.178-647.567c-129.516-5.658-369.423,63.601-570.938,251.681
						c-299.811,279.822-539.625,789.496-559.611,999.361l349.586,9.994c0,0,233.162-549.652,402.122-619.607v619.238h28.931H2697.46
						h28.932v-619.238c168.959,69.955,399.133,619.607,399.133,619.607l349.596-9.994
						C3455.134,3185.146,3215.319,2675.472,2915.509,2395.649z"/>
				</g>
				<g>
					<path fill="#DEBC9E" d="M1984.554,730.918c-496.546-13.361-552.146,192.307-552.146,580.675
						c0,393.91,246.1,713.993,552.146,722.782c4.334,0.131,8.609,0.422,12.894,0.422c0,0,0.012,0,0.018,0V730.692
						C1993.163,730.772,1988.857,731.034,1984.554,730.918z"/>
					<path fill="#EFD4B7" d="M2562.521,1311.593c0-399.393-240.121-581.127-552.26-581.127c-4.271,0-8.535,0.148-12.797,0.226
						v1304.105C2309.559,2034.788,2562.521,1711.007,2562.521,1311.593z"/>
				</g>
				<g>
					<path fill="none" d="M1846.425,1742.532c0,32.1,26.024,58.127,58.13,58.127h92.91v-116.256h-92.91
						C1872.449,1684.403,1846.425,1710.429,1846.425,1742.532z"/>
					<path fill="none" d="M2088.822,1800.659c32.105,0,58.129-26.027,58.129-58.127c0-32.103-26.023-58.129-58.129-58.129h-91.357
						v116.256H2088.822z"/>
					<path fill="#563722" d="M2539.377,1367.886c-102.709,341.198-318.18,344.982-318.18,344.982
						c0-100.095-193.33-88.974-223.732-86.608v58.143h91.357c32.105,0,58.129,26.026,58.129,58.129
						c0,32.1-26.023,58.127-58.129,58.127h-91.357v268.24c0.883,0.021,1.754,0.059,2.65,0.059v-0.146
						c519.75-6.219,563.135-712.032,563.135-712.032L2539.377,1367.886z"/>
					<path fill="#563722" d="M1904.555,1800.659c-32.105,0-58.13-26.027-58.13-58.127c0-32.103,26.024-58.129,58.13-58.129h92.91
						v-58.143c-0.241,0.02-0.554,0.041-0.776,0.06c-28.035-2.237-224.503-14.331-224.503,86.549c0,0-215.48-3.784-318.184-344.982
						l-23.872-11.107c0,0,43.38,705.813,563.133,712.032v0.146c1.156,0,2.27-0.064,3.426-0.07c0.262,0.006,0.518,0.006,0.776,0.012
						v-268.24H1904.555z"/>
				</g>
				<path fill="#563722" d="M1430.13,1356.779c0,0-57.022-414.807-13.935-459.69s66.428-30.521,66.428-30.521
					s-53.861-82.585-35.907-120.287s174.147-305.206,642.729-245.96s493.717,493.716,493.717,493.716
					s-12.568,339.318-26.932,402.154l-25.135-3.591l-50.268-412.925c0,0-57.451,102.334-231.6,43.088
					c-174.146-59.246-385.996-339.318-707.359-149.013c0,0-50.27,62.837-52.065,91.562s-53.86,337.522-32.315,418.313
					L1430.13,1356.779z"/>
				<g>
					<g>
						<g>
							<path fill="#493F38" d="M2539.393,1212.946l-30.849-44.99l-58.214,0.441l-18.615,0.144l-1.956-1.915
								c0,0-314.634-29.409-403.435,47.756l-85.231-0.309c-84.522-80.221-407.919-45.042-407.919-45.042l-1.928,1.925l-18.611,0.144
								l-58.225,0.447l0.416,53.897l40.689-0.302c-40.635,149.91,68.206,255.311,226.631,250.48
								c154.039-4.692,208.654-179.019,216.562-207.53l85.956-0.228c0,0,52.913,205.591,220.771,208.177
								c158.611,2.447,265.908-104.772,222.713-254.281L2539.393,1212.946z M1886.389,1263.783l-2.043,10.11
								c0,0-38.643,160.023-168.721,163.987c-129.389,3.937-216.123-86.949-169.664-213.122l3.625-5.297l4.488-4.157l15.039-15.139
								c0,0,250.73-27.266,316.266,34.938l1.574,10.873L1886.389,1263.783z M2251.399,1438.203
								c-130.147-2.005-171.183-161.425-171.183-161.425l-2.203-10.07l-0.836-17.813l1.412-10.887
								c64.588-63.184,315.707-39.72,315.707-39.72l15.262,14.91l4.578,4.464l3.664,4.827
								C2466.199,1347.996,2380.841,1440.194,2251.399,1438.203z"/>
						</g>
					</g>
				</g>
				<polygon fill="#FF867B" points="1981.715,2297.892 1981.715,2297.427 1981.215,2297.659 1980.715,2297.427 1980.715,2297.892 
					1895.609,2337.431 1926.417,2404.427 1980.715,2404.427 1981.715,2404.427 2035.908,2404.427 2066.768,2337.431 				"/>
				<polygon fill="#D6D4D4" points="1739.479,2145.222 1712.865,2204.862 1810.26,2467.8 1983.711,2294.937 				"/>
				<polygon fill="#D6D4D4" points="2229.75,2131.869 2254.457,2203.26 2150.165,2457.5 1978.064,2294.937 				"/>
				<polygon fill="#FF867B" points="1926.715,2410.427 2034.715,2410.427 2083.715,2879.427 1989.442,3210.864 1867.715,2855.427 
									"/>
				<path fill="#C4C2C2" d="M1768.094,2160.483l221.283,1050.257l-251.806-607.678l45.784-68.676l-125.906,9.538l-36.246-402.518
					C1621.203,2141.407,1724.218,2116.607,1768.094,2160.483z"/>
				<path fill="#C4C2C2" d="M2206.77,2147.483L1989.624,3210.74l247.669-620.678l-45.784-68.676l125.906,9.538l36.245-402.518
					C2353.66,2128.407,2250.646,2103.607,2206.77,2147.483z"/>
			</g>
		</g>
		<rect x="-405.285" y="3819.427" clip-path="url(#SVGID_2_)" fill="#B8DFDE" width="5000" height="988"/>
		<rect x="-405.285" y="3891.427" clip-path="url(#SVGID_2_)" fill="#ADCCCE" width="5000" height="124"/>
		<rect x="-405.285" y="3357.427" clip-path="url(#SVGID_2_)" fill="#CBE5E6" width="5000" height="535"/>
	</g>
</g>
<g id="Layer_3">
	<g>
		<path fill-rule="evenodd" clip-rule="evenodd" fill="#FF867B" d="M2374.654,2748.646h127.262
			c48.459,0,88.104,39.647,88.104,88.109v127.262c0,48.458-39.646,88.104-88.104,88.104h-127.262
			c-48.457,0-88.109-39.646-88.109-88.104v-127.265C2286.545,2788.294,2326.195,2748.646,2374.654,2748.646z"/>
		<g>
			<path fill-rule="evenodd" clip-rule="evenodd" fill="#FEFEFE" d="M2444.052,2813.086l-3.1,196.813c0,20.288-5.342,23.891-5.342,0
				h0.006l-3.095-196.813c-4.469-2.146-7.542-6.714-7.542-11.996c0-7.354,5.956-13.309,13.306-13.309
				c7.35-0.003,13.309,5.956,13.309,13.309C2451.594,2806.372,2448.512,2810.938,2444.052,2813.086z"/>
			<path fill-rule="evenodd" clip-rule="evenodd" fill="#FEFEFE" d="M2448.074,2817.853c0,10.326,0,20.646,0,30.974
				c1.404,0.368,2.805,0.738,4.207,1.107c4.369,1.268,10.783,3.668,15.108,1.389c1.505-0.793,1.472-0.743,2.553-2.055
				c2.966,1.792,7.114,2.46,10.299,0.834c3.024-1.545,3.956-5.008,4.709-7.985c2.413,1.666,3.751,2.379,5.554,2.909
				c2.168,0.633,3.556,0.802,5.213,0.828c1.619,0.03,2.877-0.082,4.034-0.352c5.324-1.238,8.22-4.659,9.093-9.876
				c4.186,1.269,9.213,1.17,12.988-1.273c2.485-1.608,3.881-4.144,3.746-7.76c10.861,2.63,25.364-1.595,30.9-11.872
				c-16.711-0.003-33.43,0-50.146,0c-7.253,0.163-15.903-1.074-22.891-3.025c-4.229-1.188-7.835-3.078-12.13-4.298
				c-2.002-0.566-3.943-0.958-6.313-0.851c-1.6,0.074-3.152,0.429-4.68,1.336c-3.292,1.949-2.414,4.054-4.149,6.48
				C2453.586,2817.988,2452.881,2818.5,2448.074,2817.853z"/>
			<path fill-rule="evenodd" clip-rule="evenodd" fill="#FEFEFE" d="M2428.493,2817.853c0,10.326-0.003,20.646-0.003,30.974
				c-1.395,0.368-2.8,0.738-4.201,1.107c-4.373,1.268-10.784,3.668-15.105,1.389c-1.506-0.793-1.479-0.743-2.556-2.055
				c-2.966,1.792-7.111,2.46-10.299,0.834c-3.024-1.545-3.957-5.008-4.709-7.985c-2.414,1.666-3.751,2.379-5.559,2.909
				c-2.167,0.633-3.551,0.802-5.206,0.828c-1.625,0.03-2.877-0.082-4.036-0.352c-5.325-1.238-8.221-4.659-9.091-9.876
				c-4.18,1.269-9.221,1.17-12.993-1.273c-2.479-1.608-3.874-4.144-3.748-7.76c-10.856,2.63-25.367-1.595-30.897-11.872
				c16.715-0.003,33.432,0,50.146,0c7.253,0.163,15.906-1.074,22.888-3.025c4.236-1.188,7.838-3.078,12.136-4.298
				c2.003-0.566,3.938-0.958,6.317-0.851c1.594,0.074,3.15,0.429,4.676,1.336c3.298,1.949,2.414,4.054,4.148,6.48
				C2422.986,2817.988,2423.686,2818.5,2428.493,2817.853z"/>
			<path fill-rule="evenodd" clip-rule="evenodd" fill="#FEFEFE" d="M2416.289,2856.223c-5.464-1.024-14.894,0.302-19.611,3.615
				c-4.186,2.932-5.427,7.111-5.227,12.013c0.163,3.997,1.848,7.067,4.705,10.337c13.746,15.714,30.338,12.309,47.182,16.194
				c15.087,3.476,8.221,11.218-0.872,15.944c-3.323,1.734-6.827,3.154-10.172,4.873c-1.226,0.625-2.437,1.274-3.644,1.932
				c-2.895,1.572-6.313,2.912-9.254,4.788c-7.592,4.844-8.222,12.903-4.155,20.365c2.055,3.77,5.198,5.628,9.569,7.204
				c4.112,1.484,8.463,2.368,12.567,4.131c1.89,0.806,4.361,2.16,5.646,3.796c0.475,0.608,0.77,1.358,0.954,2.104
				c0.505,1.982,0.05,5.921-2.129,10.094c-4.501,8.619-22.983,26.451-23.666,28.383c2.771,0.622,6.378-1.423,6.837-1.685
				c6.618-3.751,15.14-12.091,17.268-14.045c4.638-4.269,13.289-13.55,14.08-20.131c1.636-13.586-10.298-15.359-19.839-19.174
				c-3.267-1.311-6.663-3.36-8.303-6.397c-1.229-2.266-1.436-4.527-0.194-6.787c3.302-5.998,10.055-6.533,16.299-8.4
				c7.816-2.338,15.879-3.779,20.331-10.354c12.219-18.047-12.08-31.283-29.198-32.022c-8.713-0.375-22.185-1.172-29.727-7.16
				c-2.262-1.795-4.015-4.586-2.005-7.271c0.682-0.917,1.773-1.404,3.261-1.029c1.176,0.291,5.307,3.818,7.471,4.773
				c3.655,1.609,7.882,1.854,11.604,0.205c2.957-1.307,2.424-5.048,0.979-8.216c-1.229-2.678-3.22-4.781-5.667-6.21
				C2419.836,2857.195,2418.118,2856.564,2416.289,2856.223z"/>
			<path fill-rule="evenodd" clip-rule="evenodd" fill="#BA0900" d="M2420.89,2862.551c-1.333-0.652-2.769-0.732-3.206-0.183
				c-0.441,0.546,0.277,1.52,1.607,2.169c1.334,0.65,2.769,0.733,3.206,0.186C2422.939,2864.174,2422.214,2863.204,2420.89,2862.551
				z"/>
			<path fill-rule="evenodd" clip-rule="evenodd" fill="#BA0900" d="M2426.411,2872.348c-1.848-0.769-4.843-1.688-5.999-3.342
				c0.57,1.525,2.624,2.794,3.197,4.318C2424.611,2873.107,2425.549,2872.787,2426.411,2872.348z"/>
			<path fill-rule="evenodd" clip-rule="evenodd" fill="#FEFEFE" d="M2460.278,2856.223c5.47-1.024,14.891,0.302,19.614,3.615
				c4.184,2.932,5.424,7.111,5.227,12.013c-0.162,3.997-1.851,7.067-4.705,10.337c-13.744,15.714-30.337,12.309-47.178,16.194
				c-15.091,3.476-8.229,11.218,0.863,15.944c3.334,1.734,6.839,3.154,10.174,4.873c1.225,0.625,2.439,1.274,3.644,1.932
				c2.897,1.572,6.316,2.912,9.261,4.788c7.585,4.844,8.213,12.903,4.148,20.365c-2.049,3.77-5.193,5.628-9.563,7.204
				c-4.115,1.484-8.47,2.368-12.574,4.131c-1.889,0.806-4.358,2.16-5.643,3.796c-0.473,0.608-0.77,1.358-0.957,2.104
				c-0.506,1.982-0.047,5.921,2.132,10.094c4.498,8.619,22.979,26.451,23.666,28.383c-2.771,0.622-6.378-1.423-6.84-1.685
				c-6.614-3.751-15.134-12.091-17.263-14.045c-4.637-4.269-13.291-13.55-14.084-20.131c-1.632-13.586,10.3-15.359,19.841-19.174
				c3.271-1.311,6.661-3.36,8.303-6.397c1.226-2.266,1.436-4.527,0.192-6.787c-3.3-5.998-10.054-6.533-16.302-8.4
				c-7.816-2.338-15.876-3.779-20.327-10.354c-12.215-18.047,12.082-31.283,29.195-32.022c8.717-0.375,22.184-1.172,29.727-7.16
				c2.266-1.795,4.016-4.586,2.014-7.271c-0.689-0.917-1.775-1.404-3.271-1.029c-1.171,0.291-5.3,3.818-7.466,4.773
				c-3.656,1.609-7.887,1.854-11.604,0.205c-2.953-1.307-2.43-5.048-0.979-8.216c1.229-2.678,3.218-4.781,5.67-6.21
				C2456.737,2857.195,2458.449,2856.564,2460.278,2856.223z"/>
			<path fill-rule="evenodd" clip-rule="evenodd" fill="#BA0900" d="M2455.686,2862.551c1.332-0.652,2.761-0.732,3.201-0.183
				c0.44,0.546-0.282,1.52-1.611,2.169c-1.333,0.65-2.766,0.733-3.205,0.186C2453.635,2864.174,2454.354,2863.204,2455.686,2862.551
				z"/>
			<path fill-rule="evenodd" clip-rule="evenodd" fill="#BA0900" d="M2450.16,2872.348c1.847-0.769,4.843-1.688,6.001-3.342
				c-0.573,1.525-2.626,2.794-3.196,4.318C2451.957,2873.107,2451.024,2872.787,2450.16,2872.348z"/>
		</g>
		<path fill-rule="evenodd" clip-rule="evenodd" fill="#C23C2F" d="M2426.066,2872.518c-0.048,0.02-0.096,0.039-0.142,0.061
			C2425.971,2872.561,2426.021,2872.539,2426.066,2872.518L2426.066,2872.518z M2328.573,2823.205
			c6.689,3.899,15.331,5.104,22.414,3.388c-0.126,3.616,1.269,6.151,3.748,7.76c3.772,2.444,8.813,2.542,12.993,1.273
			c0.87,5.217,3.766,8.638,9.091,9.876c1.159,0.27,2.411,0.382,4.036,0.352c1.655-0.026,3.039-0.194,5.206-0.828
			c1.808-0.53,3.147-1.245,5.559-2.908c0.752,2.979,1.685,6.439,4.709,7.984c3.188,1.626,7.333,0.958,10.299-0.834
			c1.077,1.312,1.05,1.262,2.556,2.055c4.321,2.279,10.732-0.121,15.105-1.389l4.201-1.107l0.003-30.974l4.167,4.17l0.961,60.894
			c-8.679-0.424-20.855-1.496-27.885-7.073c-2.262-1.798-4.015-4.589-2.005-7.274c0.682-0.917,1.773-1.404,3.261-1.029
			c1.177,0.291,5.305,3.818,7.471,4.773c2.869,1.264,6.093,1.686,9.147,1.01c-0.574-1.522-2.628-2.791-3.198-4.316
			c1.155,1.654,4.151,2.575,5.999,3.342c2.569-1.438,2.022-5.006,0.635-8.044c-1.228-2.68-3.22-4.781-5.667-6.212
			c-1.543-0.896-3.261-1.529-5.09-1.869c-5.464-1.024-14.894,0.302-19.611,3.615c-4.186,2.932-5.426,7.111-5.227,12.013
			c0.162,3.997,1.848,7.067,4.705,10.337c5.611,6.413,11.695,9.643,18.078,11.48c-2.918,2.803-4.937,6.073-5.484,9.714
			L2328.573,2823.205z"/>
		<path fill-rule="evenodd" clip-rule="evenodd" fill="#C23C2F" d="M2452.965,2873.322c-0.034-0.006-0.066-0.014-0.1-0.02
			C2452.898,2873.309,2452.931,2873.316,2452.965,2873.322L2452.965,2873.322z M2437.92,3026.453l25.67,25.668h4.716l33.61,0.001
			c48.459,0,88.104-39.649,88.104-88.104v-115.756l-33.542-33.541c-5.534,10.277-20.039,14.502-30.901,11.872
			c0.136,3.616-1.26,6.151-3.745,7.76c-3.772,2.444-8.805,2.542-12.988,1.273c-0.814,4.854-3.377,8.157-8.021,9.59
			c-0.346,0.104-0.702,0.2-1.071,0.286c-1.157,0.27-2.415,0.382-4.038,0.352c-1.653-0.026-3.042-0.194-5.209-0.828
			c-1.803-0.53-3.143-1.245-5.554-2.908c-0.753,2.979-1.685,6.439-4.709,7.984c-3.185,1.626-7.333,0.958-10.299-0.834
			c-1.081,1.312-1.048,1.262-2.553,2.055c-4.325,2.279-10.739-0.121-15.108-1.389l-4.207-1.107v-30.974
			c4.807,0.647,5.51,0.136,8.095-3.489c1.735-2.427,0.857-4.531,4.149-6.479c0.733-0.436,1.473-0.745,2.218-0.954l-13.086-13.086
			c1.355,2.085,2.144,4.573,2.144,7.246c0,5.282-3.081,9.848-7.542,11.996l-1.1,69.83c8.679-0.424,20.851-1.496,27.878-7.073
			c2.266-1.798,4.016-4.589,2.014-7.274c-0.689-0.917-1.773-1.404-3.271-1.029c-1.171,0.291-5.3,3.818-7.466,4.773
			c-2.87,1.263-6.093,1.686-9.143,1.01c0.569-1.522,2.623-2.791,3.196-4.316c-1.158,1.654-4.154,2.575-6.001,3.342
			c-2.563-1.438-2.027-5.006-0.636-8.044c1.229-2.68,3.218-4.781,5.67-6.212c1.543-0.896,3.255-1.529,5.084-1.869
			c5.468-1.024,14.891,0.302,19.616,3.615c4.182,2.932,5.422,7.111,5.225,12.013c-0.162,3.997-1.851,7.067-4.705,10.337
			c-5.608,6.413-11.694,9.643-18.075,11.48c5.771,5.547,8.028,12.926,2.322,21.354c-2.987,4.413-7.604,6.514-12.679,8.126
			c1.764,0.846,3.554,1.727,5.196,2.771c7.584,4.844,8.212,12.903,4.147,20.362c-1.192,2.194-2.756,3.742-4.713,4.961
			c-1.41,0.878-3.022,1.587-4.85,2.246c-0.059,0.021-0.12,0.043-0.181,0.064c3.427,2.598,5.534,6.346,4.784,12.583
			c-0.729,6.076-8.162,14.455-12.949,19.063c6.713,7.721,14.529,15.554,14.97,16.797c-2.771,0.622-6.378-1.422-6.84-1.685
			c-3.311-1.879-7.099-4.903-10.323-7.706l-0.272,17.294c0,6.235-0.504,10.895-1.202,13.665
			C2439.207,3025.708,2438.552,3026.719,2437.92,3026.453L2437.92,3026.453z M2450.707,2872.606
			c0.664,0.289,1.367,0.518,2.109,0.684c0.016,0.005,0.032,0.008,0.049,0.013
			C2452.133,2873.133,2451.412,2872.903,2450.707,2872.606L2450.707,2872.606z M2450.16,2872.348
			c0.114,0.059,0.229,0.112,0.344,0.17C2450.384,2872.465,2450.27,2872.406,2450.16,2872.348z"/>
		<path fill-rule="evenodd" clip-rule="evenodd" fill="#C23C2F" d="M2435.616,3009.899L2435.616,3009.899L2435.616,3009.899z
			 M2418.181,3001.996l17.852,17.852c-0.262-2.538-0.422-5.837-0.416-9.948l-0.271-17.292c-3.227,2.801-7.016,5.825-10.326,7.704
			C2424.561,3000.574,2420.954,3002.618,2418.181,3001.996z"/>
		<path fill-rule="evenodd" clip-rule="evenodd" fill="#C23C2F" d="M2433.236,2898.382c-15.091,3.476-8.229,11.218,0.863,15.944
			c0.005,0.004,0.011,0.007,0.014,0.008l-0.252-16.093C2433.652,2898.286,2433.445,2898.334,2433.236,2898.382z"/>
		<path fill-rule="evenodd" clip-rule="evenodd" fill="#C23C2F" d="M2442.712,2898.24l-0.254,16.093
			c0.002-0.002,0.005-0.003,0.008-0.007c9.093-4.727,15.959-12.469,0.872-15.944
			C2443.128,2898.334,2442.918,2898.286,2442.712,2898.24z"/>
		<path fill-rule="evenodd" clip-rule="evenodd" fill="#C23C2F" d="M2442.238,2928.333l-0.281,17.776
			c2.612-1.297,5.066-3.099,6.388-5.545c1.226-2.266,1.436-4.527,0.192-6.787C2447.033,2931.04,2444.807,2929.441,2442.238,2928.333
			z"/>
		<path fill-rule="evenodd" clip-rule="evenodd" fill="#C23C2F" d="M2428.034,2933.777c-1.244,2.26-1.038,4.521,0.191,6.787
			c1.319,2.443,3.775,4.248,6.389,5.543l-0.28-17.775C2431.766,2929.44,2429.539,2931.04,2428.034,2933.777z"/>
		<path fill-rule="evenodd" clip-rule="evenodd" fill="#C23C2F" d="M2432.59,2963.519c-0.506,1.983-0.047,5.922,2.132,10.095
			c0.104,0.2,0.218,0.403,0.335,0.613l-0.223-14.09c-0.494,0.4-0.936,0.828-1.287,1.278
			C2433.074,2962.023,2432.777,2962.771,2432.59,2963.519z"/>
		<path fill-rule="evenodd" clip-rule="evenodd" fill="#C23C2F" d="M2441.736,2960.137l-0.223,14.09
			c0.119-0.21,0.231-0.413,0.335-0.613c2.179-4.173,2.634-8.111,2.129-10.095c-0.185-0.747-0.479-1.495-0.954-2.104
			C2442.672,2960.965,2442.229,2960.539,2441.736,2960.137z"/>
	</g>
</g>
</svg>
